<?xml version="1.0" standalone="no"?>
<!DOCTYPE svg PUBLIC "-//W3C//DTD SVG 1.1//EN" "http://www.w3.org/Graphics/SVG/1.1/DTD/svg11.dtd" >
<!--
2013-9-30: Created.
-->
<svg>
<metadata>
Created by iconfont
</metadata>
<defs>

<font id="iconfont" horiz-adv-x="1024" >
  <font-face
    font-family="iconfont"
    font-weight="500"
    font-stretch="normal"
    units-per-em="1024"
    ascent="896"
    descent="-128"
  />
    <missing-glyph />
    
    <glyph glyph-name="twitter" unicode="&#60595;" d="M962.267429 662.820571q-38.253714-56.027429-92.598857-95.451429 0.585143-7.972571 0.585143-23.990857 0-74.313143-21.723429-148.260571t-65.974857-141.970286-105.398857-120.32-147.456-83.456-184.539429-31.158857q-154.843429 0-283.428571 82.870857 19.968-2.267429 44.544-2.267429 128.585143 0 229.156571 78.848-59.977143 1.170286-107.446857 36.864t-65.170286 91.136q18.870857-2.852571 34.889143-2.852571 24.576 0 48.566857 6.290286-64 13.165714-105.984 63.707429t-41.984 117.394286l0 2.267429q38.838857-21.723429 83.456-23.405714-37.741714 25.161143-59.977143 65.682286t-22.308571 87.990857q0 50.322286 25.161143 93.110857 69.12-85.138286 168.301714-136.265143t212.260571-56.832q-4.534857 21.723429-4.534857 42.276571 0 76.580571 53.979429 130.56t130.56 53.979429q80.018286 0 134.875429-58.294857 62.317714 11.995429 117.174857 44.544-21.138286-65.682286-81.115429-101.741714 53.174857 5.705143 106.276571 28.598857z"  horiz-adv-x="1024" />

    
    <glyph glyph-name="facebook" unicode="&#59045;" d="M767.39328 889.07776l0-150.847488-89.708544 0q-49.139712 0-66.281472-20.570112t-17.14176-61.710336l0-107.993088 167.417856 0-22.284288-169.132032-145.133568 0 0-433.686528-174.845952 0 0 433.686528-145.70496 0 0 169.132032 145.70496 0 0 124.563456q0 106.278912 59.424768 164.846592t158.275584 58.56768q83.994624 0 130.277376-6.856704z"  horiz-adv-x="1024" />

    
    <glyph glyph-name="linkedin" unicode="&#59086;" d="M272.566857 538.843429V-27.428571H84.004571V538.843429h188.562286z m11.995429 174.884571c0.585143-54.272-40.557714-97.718857-106.276572-97.718857h-1.133714C113.737143 616.009143 73.142857 659.456 73.142857 713.728c0 55.442286 42.276571 97.718857 106.276572 97.718857 64.585143 0 104.557714-42.276571 105.142857-97.718857zM950.857143 297.142857v-324.571428h-188.013714v302.848c0 75.995429-27.428571 128-95.414858 128-52.004571 0-82.870857-34.852571-96.585142-68.571429-4.571429-12.580571-6.290286-29.147429-6.290286-46.299429v-316.013714H376.539429c2.304 513.133714 0 566.272 0 566.272h188.013714v-82.285714h-1.133714c24.576 38.838857 69.156571 95.414857 170.861714 95.414857 124.013714 0 216.576-81.152 216.576-254.866286z"  horiz-adv-x="1024" />

    
    <glyph glyph-name="ad-creative" unicode="&#60964;" d="M511.04 747.328a352.384 352.384 0 0 1-352-352 352.704 352.704 0 0 1 185.024-308.864v-55.296a32 32 0 0 1 32-32h270.016a32 32 0 0 1 32 32v55.296a352.704 352.704 0 0 1 184.96 308.864c0 194.112-157.888 352-352 352z m121.536-613.184c-1.408-0.64-2.304-1.792-3.584-2.624-2.112-1.344-4.288-2.624-6.016-4.416-1.408-1.472-2.24-3.264-3.328-4.992-1.152-1.792-2.432-3.392-3.2-5.376-0.832-2.176-1.024-4.544-1.408-6.848-0.256-1.6-0.96-3.072-0.96-4.736v-41.984H408.064v41.984c0 1.664-0.704 3.136-0.96 4.736-0.384 2.368-0.512 4.736-1.408 6.912-0.768 1.984-2.112 3.584-3.264 5.376-1.088 1.664-1.92 3.456-3.328 4.928-1.728 1.856-3.904 3.072-6.08 4.48-1.216 0.832-2.112 1.92-3.52 2.56a289.088 289.088 0 0 0-166.528 261.184c0 158.784 129.216 288 288 288s288-129.216 288-288a288.96 288.96 0 0 0-166.4-261.184zM646.08-63.936H376.064a32 32 0 0 1 0-64h270.016a32 32 0 0 1 0 64zM511.04 799.936c17.728 0 32 14.272 32 32v32a32 32 0 0 1-64 0v-32a32 32 0 0 1 32-32zM122.176 620.608l-27.712 16a32 32 0 0 1-32-55.424l27.712-16a31.936 31.936 0 0 1 32 55.424zM223.36 758.912a32 32 0 1 1 55.488 32l-16 27.712a32 32 0 0 1-55.488-32l16-27.712zM973.248 624.896a32 32 0 0 1-43.712 11.712l-27.712-16a32 32 0 0 1 32-55.424l27.712 16a32 32 0 0 1 11.712 43.712zM753.792 747.2a31.936 31.936 0 0 1 43.712 11.712l16 27.712a32 32 0 0 1-55.424 32l-16-27.712a32 32 0 0 1 11.712-43.712z"  horiz-adv-x="1024" />

    
    <glyph glyph-name="ad-optimization-tool" unicode="&#60965;" d="M880.512 832.064H143.424C81.984 832.064 32 782.848 32 722.24v-540.672c0-60.544 49.984-109.824 111.424-109.824H480v-72.448H222.656a31.808 31.808 0 0 1-31.68-31.68c0-17.408 14.272-31.68 31.68-31.68h578.688a31.872 31.872 0 0 1 31.744 31.68 31.808 31.808 0 0 1-31.68 31.68H544v72.448h336.576c61.504 0 111.488 49.28 111.488 109.824V722.24C992 782.848 942.016 832.064 880.512 832.064z m47.552-645.312a51.84 51.84 0 0 0-52.288-51.008H148.16a51.712 51.712 0 0 0-52.16 51.008V717.056c0 28.096 23.424 51.008 52.16 51.008h727.68c28.8 0 52.224-22.912 52.224-51.008v-530.304zM787.84 595.328l-145.344-18.304a23.808 23.808 0 0 1-15.616-38.336l25.408-32.064-139.968-119.808L411.008 516.48a32 32 0 0 1-47.68 3.072L210.752 368.96a32 32 0 1 1 44.928-45.568l126.976 125.312 99.776-127.744a32 32 0 0 1 22.016-12.16l3.2-0.128a32.064 32.064 0 0 1 20.8 7.744l163.584 139.968 28.992-36.608a23.744 23.744 0 0 1 40.896 6.4l51.136 137.28a23.616 23.616 0 0 1-3.648 23.04 23.232 23.232 0 0 1-21.568 8.832z"  horiz-adv-x="1024" />

    
    <glyph glyph-name="ad-report" unicode="&#60966;" d="M893.027715 542.841448a31.001248 31.001248 0 0 1-6.32809 9.524095l-0.44744 0.639201-0.319601 0.319601-263.350811 268.144819a31.89613 31.89613 0 0 1-22.755556 9.588015l-0.3196-0.063921H248.329588C182.236205 830.993258 128.479401 776.533333 128.479401 709.545069v-715.905119c0-66.924345 53.756804-121.38427 119.850187-121.38427h527.340824c66.093383 0 119.850187 54.459925 119.850187 121.44819v536.928839a31.83221 31.83221 0 0 1-2.492884 12.208739zM631.850187 720.858926l155.453683-158.266167H631.850187V720.858926z m143.820225-784.683146h-527.340824A56.761049 56.761049 0 0 0 192.399501-6.36005v715.905119c0 31.76829 25.056679 57.52809 55.930087 57.52809h319.600499v-236.44045a31.96005 31.96005 0 0 1 31.96005-31.96005H831.600499v-505.032709a56.761049 56.761049 0 0 0-55.930087-57.46417zM687.716355 64.591261h-383.5206a31.96005 31.96005 0 0 1 0-63.9201h383.5206a31.96005 31.96005 0 1 1 0 63.9201zM352.00799 127.424719a31.96005 31.96005 0 0 1 31.96005 31.96005v255.6804a31.96005 31.96005 0 0 1-63.9201 0v-255.6804a31.96005 31.96005 0 0 1 31.96005-31.96005zM480.423471 127.424719a31.96005 31.96005 0 0 1 31.96005 31.96005v127.8402a31.96005 31.96005 0 0 1-63.9201 0v-127.8402a31.96005 31.96005 0 0 1 31.96005-31.96005zM608.838951 127.424719a31.96005 31.96005 0 0 1 31.96005 31.96005v191.7603a31.96005 31.96005 0 0 1-63.9201 0v-191.7603a31.96005 31.96005 0 0 1 31.96005-31.96005z"  horiz-adv-x="1024" />

    
    <glyph glyph-name="ad-puton" unicode="&#60967;" d="M515.007248 510.624344a159.96001 159.96001 0 1 1 0-319.92002 159.96001 159.96001 0 0 1 0 319.92002z m0-255.936016a95.976006 95.976006 0 1 0 0.063984 192.015996 95.976006 95.976006 0 0 0-0.063984-192.015996zM959.824044 384.511872h-30.648338a415.512122 415.512122 0 0 1-384.927768 380.576856v34.615346c0 17.595601-14.396401 31.992002-31.992002 31.992002s-31.992002-14.396401-31.992002-31.992002v-34.935266a415.448138 415.448138 0 0 1-379.489128-380.832792h-36.59885c-17.595601 0-31.992002-14.396401-31.992002-31.992002s14.396401-31.992002 31.992002-31.992002h36.470882a415.448138 415.448138 0 0 1 379.745064-383.392152v-32.311922c0-17.595601 14.396401-31.992002 31.992002-31.992002s31.992002 14.396401 31.992002 31.992002v32.055986a415.256186 415.256186 0 0 1 384.991752 384.287928h30.456386c17.595601 0 31.992002 14.396401 31.992002 31.992002a32.055986 32.055986 0 0 1-31.992002 31.928018zM544.311922 0.223944v31.928018c0 17.595601-14.396401 31.992002-31.992002 31.992002s-31.992002-14.396401-31.992002-31.992002v-31.672082A351.912022 351.912022 0 0 0 164.566858 319.888028H192.07998c17.595601 0 31.992002 14.396401 31.992002 31.992002s-14.396401 31.992002-31.992002 31.992002h-27.32117a351.848038 351.848038 0 0 0 315.505124 316.912772v-29.048738c0-17.595601 14.396401-31.992002 31.992002-31.992002s31.992002 14.396401 31.992002 31.992002v29.368658a351.72007 351.72007 0 0 0 320.943764-316.592852h-33.335666c-17.595601 0-31.992002-14.396401-31.992002-31.992002s14.396401-31.992002 31.992002-31.992002h33.527618A351.656086 351.656086 0 0 0 544.311922 0.223944z"  horiz-adv-x="1024" />

    
    <glyph glyph-name="ad-account" unicode="&#60968;" d="M913.344 767.936H112.256c-61.44 0-111.424-54.336-111.424-121.216v-589.696c0-66.816 49.984-121.216 111.424-121.216h801.152c61.504 0 111.488 54.336 111.488 121.216V646.72c-0.064 66.88-50.048 121.216-111.552 121.216z m47.552-710.72c-0.064-31.68-23.488-57.408-52.288-57.408H116.992c-28.736 0-52.16 25.792-52.16 57.408V646.528c0 31.68 23.424 57.408 52.16 57.408h791.68c28.8 0 52.224-25.792 52.224-57.408v-589.312zM865.152 383.936h-192c-17.6 0-32-14.4-32-32s14.4-32 32-32h192c17.6 0 32 14.4 32 32s-14.4 32-32 32zM865.152 576.576h-192c-17.6 0-32-14.4-32-32s14.4-32 32-32h192c17.6 0 32 14.4 32 32s-14.4 32-32 32zM865.152 192.832h-192c-17.6 0-32-14.4-32-32s14.4-32 32-32h192c17.6 0 32 14.4 32 32s-14.4 32-32 32zM454.336 343.552c27.968 26.368 45.632 63.424 45.632 104.704 0 79.552-64.768 144.32-144.32 144.32S211.328 527.808 211.328 448.256c0-41.344 17.664-78.4 45.632-104.704a219.52 219.52 0 0 1-121.28-195.584 32 32 0 0 1 32-32h375.936c17.728 0 32 14.272 32 32a219.52 219.52 0 0 1-121.28 195.584zM275.328 448.256c0 44.288 36.032 80.32 80.32 80.32s80.32-36.032 80.32-80.32c0-44.224-35.904-80.192-80.128-80.256h-0.384a80.384 80.384 0 0 0-80.128 80.256z m-72.32-268.288c14.784 70.72 77.632 123.968 152.64 123.968s137.856-53.248 152.704-123.968H203.008z"  horiz-adv-x="1024" />

    
    <glyph glyph-name="ads-automatic-optimi" unicode="&#60969;" d="M788.224 207.04a84.096 84.096 0 0 1 0-168c46.336 0 84.032 37.76 84.032 84.032s-37.696 83.968-84.032 83.968z m0-126.016a41.984 41.984 0 1 0 0 84.032 41.984 41.984 0 0 0 0-84.032zM1008.512 166.656c-2.432 12.8-10.112 20.992-19.456 20.8h-1.92a58.24 58.24 0 0 0-58.24 58.24c0 10.56 4.992 22.208 5.056 22.272a26.368 26.368 0 0 1-8.896 31.872l-0.576 0.384-56 31.104-0.576 0.256a29.44 29.44 0 0 1-31.744-6.336c-6.848-7.104-28.416-25.408-45.824-25.408-17.6 0-39.296 18.688-46.144 25.856a29.44 29.44 0 0 1-31.68 6.528l-0.576-0.256-57.984-31.872-0.576-0.384a26.368 26.368 0 0 1-8.896-31.808c0-0.064 5.056-11.712 5.056-22.272a58.24 58.24 0 0 0-58.24-58.24h-1.92c-9.408 0.256-17.024-8-19.456-20.8-0.192-1.024-4.672-25.024-4.672-43.904s4.48-42.88 4.672-43.904c2.368-12.608 9.856-20.8 19.072-20.8h2.304a58.24 58.24 0 0 0 58.24-58.24c0-10.56-4.992-22.208-5.056-22.272a26.368 26.368 0 0 1 8.832-31.872l0.576-0.384 54.976-30.72 0.576-0.256a28.864 28.864 0 0 1 31.808 6.656c6.464 7.04 28.864 27.008 46.848 27.008 18.048 0 40.128-19.904 47.104-27.52 5.12-5.632 13.056-9.024 21.184-9.024a25.408 25.408 0 0 1 10.56 2.24l0.576 0.256 56.96 31.488 0.576 0.384a26.304 26.304 0 0 1 8.896 31.808c0 0.064-5.056 11.712-5.056 22.272a58.24 58.24 0 0 0 58.24 58.24h1.92c9.344-0.192 17.024 8 19.456 20.8 0.192 1.024 4.672 25.024 4.672 43.904 0 18.88-4.48 42.88-4.672 43.904z m-62.656-75.072a68.544 68.544 0 0 1-64.96-68.416c0-12.224 4.8-23.936 5.824-26.368l-43.072-23.808h-0.064a2.88 2.88 0 0 0-1.408 0.384 126.528 126.528 0 0 1-16.064 14.4c-13.376 9.92-26.112 14.976-37.888 14.976-11.648 0-24.32-4.928-37.632-14.72-8.96-6.528-15.168-13.12-15.936-13.952-0.192-0.192-0.768-0.384-1.408-0.384h-0.064l-41.536 23.232c1.024 2.368 5.824 14.144 5.824 26.432 0 36.544-28.864 66.56-64.96 68.416a208.832 208.832 0 0 0-3.328 31.104c0 12.096 2.816 28.224 3.328 31.104a68.544 68.544 0 0 1 64.96 68.416c0 12.224-4.736 23.936-5.76 26.368l43.904 24.128h0.128c0.768 0 1.408-0.32 1.664-0.448 0.704-0.768 6.848-7.104 15.744-13.44 13.12-9.408 25.6-14.144 36.992-14.144 11.328 0 23.68 4.608 36.736 13.824 8.832 6.208 14.976 12.416 15.68 13.056a3.584 3.584 0 0 0 1.6 0.384h0.192l42.368-23.552a73.152 73.152 0 0 1-5.824-26.368c0-36.544 28.864-66.56 64.96-68.416 0.512-2.88 3.328-19.008 3.328-31.104s-2.816-28.224-3.328-31.104zM133.248 159.68h47.104l17.664 56.128 80.384-0.128 17.792-56h47.744l-82.304 245.76h-46.08l-82.304-245.76z m131.904 99.456H211.2l26.88 89.728 27.072-89.728zM478.656 405.44H379.008v-245.76h108.928c62.912 0 81.024 67.456 81.024 120.448 0 70.208-17.856 125.312-90.304 125.312z m-5.952-194.624H426.24V354.24h44.736c18.496 0 50.816-4.096 50.816-72 0-61.184-25.344-71.424-49.088-71.424zM418.752 3.584v0.896h-302.72c-28.608 0-51.968 22.272-51.968 49.536v459.52h832v-94.208L896 419.008l0.064-0.32a32 32 0 0 1 63.872 0h0.128V665.28c0 58.88-48 107.072-106.688 107.072H106.688C48 772.352 0 724.16 0 665.28v-617.92c0-58.88 48-107.072 106.688-107.072h312.064v0.832c15.808 1.92 28.288 14.912 28.288 31.232s-12.48 29.312-28.288 31.232zM64 651.328c0 31.744 23.424 57.728 51.968 57.728h728c28.608 0 52.032-25.984 52.032-57.728v-71.68H64v71.68z"  horiz-adv-x="1024" />

    
    <glyph glyph-name="aircraft" unicode="&#60970;" d="M988.8 814.272a31.808 31.808 0 0 1-42.496 14.656l-896-425.088a32 32 0 0 1 3.584-59.264l260.864-86.784 0.448-0.192 83.328-27.776V-32a32 32 0 0 1 58.304-18.176l146.432 211.776 177.664-59.2a31.424 31.424 0 0 1 25.472 2.432 31.424 31.424 0 0 1 15.616 20.16l168.96 667.2a31.744 31.744 0 0 1-2.176 22.08zM345.024 315.2L149.696 380.16l670.72 318.208-392.576-410.752-82.048 27.328-0.768 0.256z m117.504-244.672v137.984l77.504-25.856-77.504-112.128z m305.984 103.552L494.976 265.216l403.52 422.208-129.984-513.344z"  horiz-adv-x="1024" />

    
    <glyph glyph-name="adult" unicode="&#60971;" d="M653.376 331.008a270.336 270.336 0 0 1 129.536 230.08C782.912 710.464 661.376 832 512 832S241.088 710.4 241.088 561.024c0-97.408 52.16-182.272 129.536-230.016C191.552 271.552 61.888 102.784 61.888-96a32 32 0 0 1 32-32h836.224a32 32 0 0 1 32 32c0 198.784-129.664 367.552-308.736 427.008zM305.088 561.088C305.088 675.136 397.888 768 512 768s206.912-92.928 206.912-206.976S626.112 354.112 512 354.112 305.088 447.04 305.088 561.088zM127.168-64C143.488 134.016 309.888 290.112 512 290.112s368.512-156.096 384.768-354.112H127.168zM555.584 252.48H474.176a32 32 0 0 1-31.488-26.432l-24.32-138.432a31.808 31.808 0 0 1 9.536-28.864l66.624-62.784a32.192 32.192 0 0 1 21.952-8.704l1.024-0.064a32.192 32.192 0 0 1 22.4 10.24l57.664 62.208a31.552 31.552 0 0 1 8.256 25.984l-18.56 139.072a31.936 31.936 0 0 1-31.68 27.776z m-40.576-187.776l-30.656 28.8 16.704 95.04h26.56l12.864-96.384-25.472-27.456z"  horiz-adv-x="1024" />

    
    <glyph glyph-name="ad-warning" unicode="&#60972;" d="M960-61.12h-96V323.648c0 211.584-157.952 383.68-352 383.68-194.112 0-352-172.096-352-383.68v-384.704H64c-17.6 0-32-14.4-32-32s14.4-32 32-32h896c17.6 0 32 14.4 32 32a32.064 32.064 0 0 1-32 31.936z m-160 0.448h-576V323.648c0 176.256 129.216 319.68 288 319.68s288-143.424 288-319.68v-384.32zM542.592 472.256l-153.024-247.488H512l-30.592-185.6 153.024 247.488H512zM511.232 765.504h1.536A31.36 31.36 0 0 1 544 796.8V861.824a31.36 31.36 0 0 1-31.232 31.232h-1.536A31.296 31.296 0 0 1 480 861.824V796.8c0-17.216 14.08-31.296 31.232-31.296zM120.448 662.016a31.36 31.36 0 0 1 44.16 1.024l1.024 1.088a31.36 31.36 0 0 1-1.024 44.16l-47.04 44.992a31.36 31.36 0 0 1-44.16-1.024l-1.024-1.088a31.36 31.36 0 0 1 1.024-44.16l47.04-44.992zM868.096 663.04a31.36 31.36 0 0 1 44.16-1.024l47.04 44.928a31.36 31.36 0 0 1 1.024 44.16l-0.96 1.152a31.36 31.36 0 0 1-44.16 1.024l-47.04-44.928a31.36 31.36 0 0 1-1.024-44.16l0.96-1.152z"  horiz-adv-x="1024" />

    
    <glyph glyph-name="alert" unicode="&#60973;" d="M992 384c0 264.704-215.296 480-480 480S32 648.704 32 384s215.296-480 480-480 480 215.296 480 480zM544 272.512a32 32 0 0 0-64 0v352a32 32 0 0 0 64 0v-352z m9.6-138.496a41.6 41.6 0 1 0-83.2 0 41.6 41.6 0 0 0 83.2 0z"  horiz-adv-x="1024" />

    
    <glyph glyph-name="alert-o" unicode="&#60974;" d="M512-96C249.6-96 32 121.6 32 384S249.6 864 512 864s480-217.6 480-480-217.6-480-480-480z m0 896C281.6 800 96 614.4 96 384s185.6-416 416-416 416 185.6 416 416S742.4 800 512 800z m0-505.6c-19.2 0-32 12.8-32 32v256c0 19.2 12.8 32 32 32s32-12.8 32-32v-256c0-19.2-12.8-32-32-32z m-38.4-96a38.4 38.4 0 1 1 76.8 0 38.4 38.4 0 1 1-76.8 0z"  horiz-adv-x="1024" />

    
    <glyph glyph-name="arrow-down" unicode="&#60975;" d="M854.592 374.656a31.936 31.936 0 0 1-45.248 0L544 109.248V736a32 32 0 0 1-64 0v-626.752L214.656 374.656a32 32 0 0 1-45.248-45.248l319.808-319.808a31.616 31.616 0 0 1 10.624-7.104c1.984-0.832 4.096-0.832 6.144-1.216 2.048-0.448 3.904-1.28 6.016-1.28 1.536 0 2.88 0.64 4.352 0.896 2.688 0.384 5.312 0.576 7.872 1.6a31.936 31.936 0 0 1 10.432 6.912l320 320a32 32 0 0 1-0.064 45.248z"  horiz-adv-x="1024" />

    
    <glyph glyph-name="arrow-left" unicode="&#60976;" d="M864 384H237.248l265.344 265.344a32 32 0 0 1-45.248 45.248L137.408 374.656c-0.256-0.256-0.32-0.576-0.512-0.768a32.064 32.064 0 0 1-6.4-34.24c0.832-2.048 2.368-3.648 3.648-5.44 1.088-1.6 1.792-3.456 3.2-4.864l320-320a32 32 0 1 1 45.312 45.312L237.248 320H864a32 32 0 0 1 0 64z"  horiz-adv-x="1024" />

    
    <glyph glyph-name="arrow-left-circle" unicode="&#60977;" d="M512 832C247.296 832 32 616.704 32 352s215.296-480 480-480 480 215.296 480 480S776.704 832 512 832z m253.568-512H378.816L516.16 182.656a32 32 0 0 0-45.248-45.312l-192 192a32 32 0 0 0 0 45.248l192 192a32 32 0 0 0 45.248-45.248L378.816 384h386.752a32 32 0 0 0 0-64z"  horiz-adv-x="1024" />

    
    <glyph glyph-name="arrow-left-circle-o" unicode="&#60978;" d="M733.632 384H426.816l89.344 89.344a32 32 0 0 1-45.248 45.248l-144-144c-2.048-2.048-3.2-4.544-4.608-6.912-0.64-1.152-1.664-2.048-2.176-3.264a32 32 0 0 1 6.784-35.072l144-144a32 32 0 0 1 45.248 45.312L426.816 320h306.816a32 32 0 0 1 0 64zM512 832C247.36 832 32 616.704 32 352S247.296-128 512-128c264.64 0 480 215.296 480 480S776.64 832 512 832z m0-896c-229.376 0-416 186.624-416 416S282.624 768 512 768s416-186.624 416-416S741.312-64 512-64z"  horiz-adv-x="1024" />

    
    <glyph glyph-name="arrow-down-circle-o" unicode="&#60979;" d="M633.344 356.16L544 266.816V573.568a32 32 0 0 1-64 0v-306.752L390.592 356.224a32 32 0 0 1-45.248-45.312l144-144c1.408-1.408 3.264-2.112 4.864-3.2 1.792-1.28 3.392-2.752 5.44-3.648a32.064 32.064 0 0 1 34.24 6.4l0.704 0.448 143.936 143.936a32 32 0 0 1-45.184 45.312zM512 832C247.296 832 32 616.64 32 352S247.296-128 512-128s480 215.296 480 480S776.704 832 512 832z m0-896c-229.376 0-416 186.624-416 416S282.624 768 512 768s416-186.624 416-416S741.376-64 512-64z"  horiz-adv-x="1024" />

    
    <glyph glyph-name="arrow-down-circle" unicode="&#60980;" d="M32 352c0-264.704 215.296-480 480-480s480 215.296 480 480S776.704 832 512 832 32 616.704 32 352z m512 253.568v-386.752L681.344 356.16a32 32 0 0 0 45.312-45.248l-192-192a32 32 0 0 0-45.248 0l-192 192a32 32 0 0 0 45.248 45.248L480 218.816V605.568a32 32 0 0 0 64 0z"  horiz-adv-x="1024" />

    
    <glyph glyph-name="arrow-right" unicode="&#60981;" d="M886.912 329.664a32.064 32.064 0 0 1 6.656 34.56c-0.896 2.176-2.496 3.904-3.84 5.824-1.024 1.472-1.664 3.2-3.008 4.544l-320 320a32.128 32.128 0 0 1-45.376-45.376l265.408-265.344H160a32 32 0 0 1 0-64h626.752l-265.344-265.344a32 32 0 0 1 45.248-45.248l319.936 319.936 0.064 0.064 0.256 0.384z"  horiz-adv-x="1024" />

    
    <glyph glyph-name="arrows-h" unicode="&#60982;" d="M949.888 374.592l-144 144a32 32 0 0 1-45.248-45.248L849.984 384H174.016l89.344 89.408a32 32 0 0 1-45.312 45.248l-144-144a32.192 32.192 0 0 1 0-45.312l144-144a32 32 0 0 1 45.376 0.064 32 32 0 0 1-0.064 45.248L174.016 320h675.968l-89.344-89.408a32 32 0 0 1 45.312-45.248l144 144 0.384 0.384a31.808 31.808 0 0 1-0.448 44.864z"  horiz-adv-x="1024" />

    
    <glyph glyph-name="arrow-right-circle-o" unicode="&#60983;" d="M512 832C247.36 832 32 616.704 32 352S247.36-128 512-128s480 215.296 480 480S776.704 832 512 832z m0-896c-229.376 0-416 186.624-416 416S282.624 768 512 768s416-186.624 416-416S741.376-64 512-64zM706.432 352c0 2.176-0.832 4.16-1.28 6.208-0.384 1.984-0.384 4.032-1.152 5.888a32 32 0 0 1-7.168 10.688L553.024 518.592a32 32 0 0 1-45.248-45.248L597.184 384H290.432a32 32 0 0 1 0-64h306.752l-89.408-89.408a32 32 0 0 1 45.248-45.248l144 144A31.744 31.744 0 0 1 704 339.84c1.024 2.432 1.152 5.056 1.536 7.68 0.192 1.472 0.896 2.88 0.896 4.48z"  horiz-adv-x="1024" />

    
    <glyph glyph-name="arrow-up-circle" unicode="&#60984;" d="M992 384c0 264.704-215.296 480-480 480S32 648.704 32 384s215.296-480 480-480 480 215.296 480 480zM480 130.432V517.184L342.656 379.84a32 32 0 0 0-45.312 45.248l192 192a32 32 0 0 0 45.248 0l192-192a32 32 0 0 0-45.248-45.248L544 517.184v-386.752a32 32 0 0 0-64 0z"  horiz-adv-x="1024" />

    
    <glyph glyph-name="arrow-right-circle" unicode="&#60985;" d="M32 352c0-264.704 215.296-480 480-480s480 215.296 480 480S776.704 832 512 832 32 616.704 32 352z m194.432 0a32 32 0 0 0 32 32h386.752L507.84 521.344a32 32 0 0 0 45.248 45.248l192-192a32 32 0 0 0 0-45.248l-192-192a32.128 32.128 0 0 0-45.312 0 32 32 0 0 0 0 45.248L645.184 320H258.432a32 32 0 0 0-32 32z"  horiz-adv-x="1024" />

    
    <glyph glyph-name="arrow-up" unicode="&#60986;" d="M854.656 438.592l-320 320a31.936 31.936 0 0 1-10.432 6.912c-2.624 1.088-5.44 1.344-8.192 1.664C514.624 767.36 513.408 768 512 768c-1.984 0-3.776-0.768-5.696-1.152-2.176-0.384-4.352-0.448-6.4-1.28a32 32 0 0 1-10.688-7.168L169.408 438.592a32 32 0 0 1 45.248-45.248L480 658.752V32a32 32 0 0 1 64 0V658.752l265.344-265.408a32 32 0 0 1 45.312 45.248z"  horiz-adv-x="1024" />

    
    <glyph glyph-name="arrow-up-circle-o" unicode="&#60987;" d="M534.656 569.024s-0.064 0.064 0 0l-0.448 0.32a31.936 31.936 0 0 1-34.56 6.592c-2.112-0.896-3.776-2.432-5.632-3.776-1.536-1.024-3.328-1.664-4.672-3.072l-144-144a32 32 0 0 1 45.248-45.248L480 469.184v-306.752a32 32 0 0 1 64 0V469.184l89.344-89.408a32 32 0 0 1 45.248 45.312L534.656 569.024zM512 864C247.36 864 32 648.704 32 384s215.36-480 480-480 480 215.296 480 480S776.704 864 512 864z m0-896c-229.376 0-416 186.624-416 416S282.624 800 512 800s416-186.624 416-416-186.624-416-416-416z"  horiz-adv-x="1024" />

    
    <glyph glyph-name="arts" unicode="&#60988;" d="M403.2 716.8c-38.4 0-64-32-64-64 0-38.4 32-64 64-64s57.6 25.6 64 64c0 38.4-32 64-64 64zM249.6 524.8c-38.4 0-64-32-64-64 0-38.4 32-64 64-64s57.6 25.6 64 64c0 38.4-32 64-64 64zM787.2 524.8c-38.4 0-64-32-64-64 0-38.4 32-64 64-64s64 25.6 64 64-32 64-64 64zM640 716.8c-38.4 0-64-32-64-64 0-38.4 32-64 64-64 38.4 0 64 25.6 64 64s-32 64-64 64zM512 864C249.6 864 32 646.4 32 384s217.6-480 480-480c70.4 0 128 57.6 134.4 134.4 0 32-12.8 64-32 83.2l-6.4 6.4s0 6.4 6.4 6.4h83.2c160 0 294.4 128 294.4 294.4C992 672 774.4 864 512 864z m185.6-665.6H614.4c-38.4 0-70.4-32-70.4-70.4 0-19.2 6.4-32 19.2-51.2 6.4-12.8 12.8-25.6 12.8-44.8 0-32-32-64-64-64-230.4 0-416 185.6-416 416S281.6 800 512 800c224 0 416-166.4 416-371.2 0-128-102.4-230.4-230.4-230.4z"  horiz-adv-x="1024" />

    
    <glyph glyph-name="backup" unicode="&#60989;" d="M864-63.04H350.144c-52.928 0-96 43.072-96 96V544.64c0 52.928 43.072 96 96 96H864c52.928 0 96-43.072 96-96v-511.744c0-52.928-43.072-95.936-96-95.936zM350.144 576.64a32 32 0 0 1-32-32v-511.744a32 32 0 0 1 32-32H864c17.6 0 32 14.4 32 32V544.64a32 32 0 0 1-32 32H350.144zM183.488 129.984h-34.112A85.44 85.44 0 0 0 64 215.232V747.648c0 46.976 38.336 85.248 85.376 85.248h533.76c47.04 0 85.376-38.272 85.376-85.248v-31.68a32 32 0 0 0-64 0v31.68a21.312 21.312 0 0 1-21.376 21.248h-533.76A21.376 21.376 0 0 1 128 747.648v-532.416c0-11.712 9.6-21.248 21.376-21.248h34.112a32 32 0 0 0 0-64z"  horiz-adv-x="1024" />

    
    <glyph glyph-name="barschart" unicode="&#60990;" d="M992.384-128H96c-52.928 0-96 43.072-96 96V800a32 32 0 0 0 64 0v-832a32 32 0 0 1 32-32h896.384a32 32 0 0 0 0-64zM287.616 2.432a32 32 0 0 0-32 32V528.384a32 32 0 0 0 64 0v-493.952a32 32 0 0 0-32-32z m256.768 0a32 32 0 0 0-32 32v320a32 32 0 0 0 64 0v-320a32 32 0 0 0-32-32z m256.384 0a32 32 0 0 0-32 32v639.04a32 32 0 0 0 64 0v-639.04a32 32 0 0 0-32-32z"  horiz-adv-x="1024" />

    
    <glyph glyph-name="book" unicode="&#60991;" d="M799.568647 830.562157h-575.137294c-52.848727 0-95.856216-43.007489-95.856216-95.856216v-766.849725c0-52.848727 43.007489-95.856216 95.856216-95.856216h575.137294c52.848727 0 95.856216 43.007489 95.856216 95.856216v766.849725c0 52.848727-43.007489 95.856216-95.856216 95.856216z m-369.685472-63.904144h164.169746v-220.980529l-62.050924 50.73989a32.015976 32.015976 0 0 1-40.451323-0.063904l-61.667499-50.484274V766.658013zM192.479281 734.705941a31.952072 31.952072 0 0 0 31.952072 31.952072h141.547678v-288.271593a31.952072 31.952072 0 0 1 52.209686-24.730903l93.619571 76.621068 94.002995-76.684972a31.952072 31.952072 0 0 1 52.145781 24.794807V766.658013H799.568647a31.952072 31.952072 0 0 0 31.952072-31.952072v-618.592112H192.479281v618.592112z m607.089366-798.801797h-575.137294a31.952072 31.952072 0 0 0-31.952072 31.952072v84.353469h639.041438v-84.353469a31.952072 31.952072 0 0 0-31.952072-31.952072z"  horiz-adv-x="1024" />

    
    <glyph glyph-name="bell" unicode="&#60992;" d="M941.312 61.568c-37.376 26.24-106.112 87.04-106.112 129.024V395.264c0 157.184-96.32 290.432-228.416 334.4 0.384 2.048 1.216 3.968 1.216 6.144C608 785.344 568.576 840.512 512 840.512s-96-55.232-96-104.704c0-2.176 0.832-4.096 1.216-6.144-132.096-43.904-228.416-177.152-228.416-334.4v-204.608c0-43.776-74.56-107.84-110.592-132.032A32 32 0 0 1 96 0h259.264A160.192 160.192 0 0 1 512-128c77.312 0 141.888 55.04 156.8 128h260.48a32 32 0 0 1 12.032 61.568zM512 776.448c13.568 0 27.072-15.872 30.528-33.024-10.048 1.024-20.224 1.664-30.528 1.664s-20.48-0.64-30.528-1.664c3.456 17.152 16.96 33.024 30.528 33.024zM512-64a95.808 95.808 0 0 0-90.112 64h180.224c-13.248-37.184-48.448-64-90.112-64z m-327.232 128c34.368 34.368 68.032 80 68.032 126.592V395.264c0 157.632 116.288 285.824 259.2 285.824 142.976 0 259.2-128.256 259.2-285.824v-204.608c0-46.656 33.664-92.288 68.032-126.656H184.768z"  horiz-adv-x="1024" />

    
    <glyph glyph-name="bell-o" unicode="&#60993;" d="M940.672 61.696c-37.44 26.048-106.112 86.72-106.112 128.896V395.264c0 157.184-96.32 290.432-228.416 334.4 0.384 2.048 1.216 3.968 1.216 6.144 0 49.472-39.424 104.704-96 104.704s-96-55.168-96-104.704c0-2.176 0.832-4.096 1.216-6.144-132.096-43.968-228.416-177.216-228.416-334.4v-204.672c0-43.712-74.56-107.776-110.592-131.968A32 32 0 0 1 95.36 0h832a32 32 0 0 1 13.312 61.696zM511.36-128a159.68 159.68 0 0 1 151.36 110.528h-302.72A159.68 159.68 0 0 1 511.36-128z"  horiz-adv-x="1024" />

    
    <glyph glyph-name="box" unicode="&#60994;" d="M896.192 685.44L563.328 851.904a116.928 116.928 0 0 1-102.592 0L128 685.504c-39.424-19.52-64-59.072-64-103.104v-395.84a114.688 114.688 0 0 1 63.424-103.744l332.8-166.4c15.872-7.936 33.792-12.16 51.584-12.16s35.648 4.288 51.52 12.224l332.736 166.336A114.56 114.56 0 0 1 960 185.984V582.4c0 44.032-24.512 83.584-63.808 103.04zM489.28 794.624a51.712 51.712 0 0 0 45.44 0l321.536-160.768L512 461.696l-344.192 172.16 321.472 160.768zM156.16 139.968a51.2 51.2 0 0 0-28.16 46.336V582.144l352-175.936v-428.16l-323.84 161.92z m711.296 0.064L544-21.76V406.144l352 176v-396.16c0-19.584-10.88-37.12-28.544-45.952z"  horiz-adv-x="1024" />

    
    <glyph glyph-name="bounce" unicode="&#60995;" d="M863.552 243.968a32 32 0 0 1-32-32v-121.536c0-50.752-33.088-92.032-73.792-92.032H201.344c-40.64 0-73.792 41.344-73.792 92.032V597.504c0 74.048 10.88 104.96 78.144 104.96h139.584a32 32 0 0 1 0 64H205.696c-142.144 0-142.144-118.4-142.144-168.96v-507.008c0-86.08 61.76-156.032 137.792-156.032h556.416c75.968 0 137.792 69.952 137.792 155.968v121.536a32 32 0 0 1-32 32zM948.928 661.568l-198.528 164.608a32 32 0 1 1-40.896-49.216l130.816-108.544c-78.08 3.2-203.776-6.72-298.112-87.936-86.016-74.112-125.824-190.08-118.272-344.512a32 32 0 0 1 31.936-30.464h1.664a32 32 0 0 1 30.4 33.536c-6.528 133.632 25.728 232.064 95.872 292.736 85.44 73.856 208.64 76.352 273.088 71.488L736 463.808a32.064 32.064 0 0 1 48.384-42.048l168.256 194.176a32.192 32.192 0 0 1-3.712 45.632z"  horiz-adv-x="1024" />

    
    <glyph glyph-name="bookmark" unicode="&#60996;" d="M761.459367 832.03606H262.540633C185.783904 832.03606 128.216358 774.468513 128.216358 697.711785v-780.360072c0-12.792788 6.396394-25.585576 12.792788-31.98197 12.792788-12.792788 38.378364-19.189182 57.567546-6.396394L512 102.84714l313.423308-223.873791c6.396394-6.396394 19.189182-6.396394 25.585576-6.396394 25.585576 0 44.774758 19.189182 44.774758 44.774758V697.711785c0 76.756728-57.567546 134.324275-134.324275 134.324275zM831.819702-44.269923l-300.63052 217.477397c-6.396394 6.396394-12.792788 6.396394-19.189182 6.396394s-12.792788 0-19.189182-6.396394L192.180298-44.269923V697.711785C192.180298 736.090149 224.162269 768.072119 262.540633 768.072119H767.855761c31.98197 0 63.96394-31.98197 63.963941-70.360334v-741.981708zM703.891821 633.747845H320.108179c-19.189182 0-31.98197-12.792788-31.98197-31.981971s12.792788-31.98197 31.98197-31.98197h383.783642c19.189182 0 31.98197 12.792788 31.98197 31.98197s-12.792788 31.98197-31.98197 31.981971zM703.891821 384.288477H320.108179c-19.189182 0-31.98197-12.792788-31.98197-31.98197s12.792788-31.98197 31.98197-31.98197h383.783642c19.189182 0 31.98197 12.792788 31.98197 31.98197S723.081003 384.288477 703.891821 384.288477z"  horiz-adv-x="1024" />

    
    <glyph glyph-name="business" unicode="&#60997;" d="M872 691.584h-173.504V799.296c0 15.68-14.336 28.48-32 28.48h-320c-17.664 0-32-12.736-32-28.48v-107.712H152C85.76 691.584 32 639.872 32 576V55.872c0-63.808 53.76-115.584 120-115.584h720c66.304 0 120 51.776 120 115.584V576c0 63.872-53.696 115.584-120 115.584zM378.496 764.352h256v-72.768h-256V764.352zM928 69.44c0-38.912-32.384-70.464-72.32-70.464H168.32c-39.936 0-72.32 31.552-72.32 70.464V430.016h832v-360.576z m-832 424.576V562.432c0 38.912 32.384 70.464 72.32 70.464h687.36c40 0 72.32-31.552 72.32-70.464v-68.416h-832z"  horiz-adv-x="1024" />

    
    <glyph glyph-name="calculator" unicode="&#60998;" d="M800 832h-576C172.8 832 128 793.6 128 736v-768c0-51.2 44.8-96 96-96h576c51.2 0 96 44.8 96 96v768c0 57.6-44.8 96-96 96z m32-864c0-19.2-12.8-32-32-32h-576c-19.2 0-32 19.2-32 32v768c0 19.2 12.8 32 32 32h576c19.2 0 32-12.8 32-32v-768zM665.6 678.4H364.8c-57.6 0-108.8-44.8-108.8-96v-128c0-51.2 51.2-96 108.8-96h300.8c57.6 0 108.8 44.8 108.8 96v128c0 51.2-44.8 96-108.8 96z m44.8-224c0-19.2-19.2-32-44.8-32H364.8c-25.6 0-44.8 12.8-44.8 32v128c0 19.2 19.2 32 44.8 32h300.8c25.6 0 44.8-12.8 44.8-32v-128zM736 256h-128c-19.2 0-32-12.8-32-32s12.8-32 32-32h134.4c19.2 0 32 12.8 32 32s-19.2 32-38.4 32zM422.4 192h-32v32c0 19.2-12.8 32-32 32s-32-12.8-32-32v-32h-38.4c-12.8 0-32-12.8-32-32s19.2-32 32-32H320v-32c0-19.2 12.8-32 32-32s32 12.8 32 32V128h32c19.2 0 32 12.8 32 32s-6.4 32-25.6 32zM736 128h-128c-19.2 0-32-12.8-32-32s12.8-32 32-32h134.4c19.2 0 32 12.8 32 32s-19.2 32-38.4 32z"  horiz-adv-x="1024" />

    
    <glyph glyph-name="check" unicode="&#60999;" d="M409.472 92.224a32.704 32.704 0 0 0-22.976 9.472L73.024 415.232a32.64 32.64 0 0 0 0 46.016 32.64 32.64 0 0 0 45.952 0l290.496-290.496 495.552 495.552a32.64 32.64 0 0 0 46.016-46.016L432.448 101.76a32.64 32.64 0 0 0-22.976-9.536z"  horiz-adv-x="1024" />

    
    <glyph glyph-name="camera" unicode="&#61000;" d="M878.336 0H145.28c-62.592 0-113.472 49.408-113.472 110.272V540.48c0 60.8 50.88 110.208 113.472 110.208h146.176l71.936 103.616A31.68 31.68 0 0 0 389.568 768H633.92a32 32 0 0 0 26.304-13.76l71.936-103.616h146.112c62.592 0 113.472-49.408 113.472-110.208v-430.208c0.064-60.8-50.88-110.208-113.408-110.208zM145.28 586.688c-27.264 0-49.472-20.736-49.472-46.208v-430.208c0-25.536 22.144-46.272 49.472-46.272h733.056c27.328 0 49.472 20.736 49.472 46.272V540.48c0 25.472-22.208 46.208-49.472 46.208h-162.88a32 32 0 0 0-26.304 13.76L617.216 704h-210.88l-71.872-103.552a32 32 0 0 0-26.304-13.76H145.28z m366.528-433.792c-105.856 0-192 86.144-192 192s86.144 192 192 192c105.92 0 192-86.144 192-192s-86.144-192-192-192z m0 320c-70.592 0-128-57.408-128-128 0-70.528 57.408-128 128-128s128 57.408 128 128-57.408 128-128 128z"  horiz-adv-x="1024" />

    
    <glyph glyph-name="check-circle" unicode="&#61001;" d="M512 864C247.296 864 32 648.704 32 384s215.296-480 480-480 480 215.296 480 480S776.704 864 512 864z m246.656-363.008L479.424 221.824a31.872 31.872 0 0 0-45.312 0L265.344 390.592a32 32 0 0 0 45.248 45.248l146.176-146.176L713.344 546.24a32 32 0 0 0 45.312-45.248z"  horiz-adv-x="1024" />

    
    <glyph glyph-name="calendar" unicode="&#61002;" d="M256.448 180.864h128v-64h-128zM256.448 373.376h128v-64h-128zM448.448 180.864h128v-64h-128zM821.888 756.032h-53.44v33.344a32 32 0 0 1-64 0v-33.344H320.256v33.344a32 32 0 0 1-64 0v-33.344h-53.248c-76.48 0-138.688-55.808-138.688-124.416v-583.168c0-68.608 62.208-124.416 138.688-124.416h618.88c76.48 0 138.688 55.808 138.688 124.48V631.616c0 68.608-62.208 124.416-138.688 124.416z m-618.88-64h53.248v-30.656a32 32 0 0 1 64 0v30.656h384.192v-30.656a32 32 0 0 1 64 0v30.656h53.44c41.216 0 74.688-27.072 74.688-60.416v-63.936H128.32v63.936c0 33.28 33.536 60.416 74.688 60.416z m618.88-703.936h-618.88c-41.216 0-74.688 27.072-74.688 60.416V500.224h768.256v-451.712c0-33.28-33.472-60.416-74.688-60.416zM640.448 373.376h128v-64h-128zM448.448 373.376h128v-64h-128zM640.448 180.864h128v-64h-128z"  horiz-adv-x="1024" />

    
    <glyph glyph-name="check-circle-o" unicode="&#61003;" d="M512-96C247.36-96 32 119.296 32 384 32 648.64 247.296 864 512 864s480-215.296 480-480c0-264.64-215.36-480-480-480z m0 896C282.624 800 96 613.376 96 384s186.624-416 416-416 416 186.624 416 416S741.376 800 512 800z m-55.232-587.584a32.256 32.256 0 0 0-22.656 9.344L265.408 390.592a32 32 0 0 0 45.312 45.248l146.112-146.176L713.408 546.24a32 32 0 0 0 45.248-45.248L479.488 221.824a32 32 0 0 0-22.72-9.408z"  horiz-adv-x="1024" />

    
    <glyph glyph-name="check-square" unicode="&#61004;" d="M906.432 416a32 32 0 0 1-32-32v-323.584c0-33.28-26.048-60.416-58.048-60.416H186.048c-32 0-58.048 27.136-58.048 60.416V707.52C128 740.864 154.048 768 186.048 768h495.232a32 32 0 0 1 0 64H186.048C118.72 832 64 776.192 64 707.52v-647.04C64-8.192 118.72-64 186.048-64h630.336c67.328 0 122.048 55.808 122.048 124.48V384a32 32 0 0 1-32 32zM950.336 760.512a32 32 0 0 1-45.312 1.088L480.512 325.76l-152.96 156.992-0.512 0.512a32 32 0 1 1-45.312-45.184L457.6 257.536a32.128 32.128 0 0 1 45.888 0.064l447.424 459.264a32 32 0 0 1-0.576 43.648z"  horiz-adv-x="1024" />

    
    <glyph glyph-name="cloning" unicode="&#61005;" d="M767.552 320.832H639.104V448.704a32 32 0 0 1-64 0v-127.872H446.592a32 32 0 0 1 0-64h128.512v-127.936a32 32 0 0 1 64-0.064v128h128.384a32 32 0 0 1 0.064 64zM864 640.64h-95.488V747.648c0 46.976-38.336 85.248-85.376 85.248h-533.76C102.336 832.896 64 794.624 64 747.648v-532.416a85.44 85.44 0 0 1 85.376-85.248H254.08v-97.024c0-52.928 43.072-96 96-96h513.92c52.928 0 96 43.008 96 95.936V544.64c0 52.928-43.072 96-96 96zM149.376 193.984A21.376 21.376 0 0 0 128 215.232V747.648a21.376 21.376 0 0 0 21.376 21.248h533.76a21.312 21.312 0 0 0 21.376-21.248V640.64H350.08c-52.928 0-96-43.072-96-96v-350.656H149.376zM896 32.896c0-17.6-14.4-32-32-32H350.08a32 32 0 0 0-32 32V544.64a32 32 0 0 0 32 32h513.92a32 32 0 0 0 32-32v-511.744z"  horiz-adv-x="1024" />

    
    <glyph glyph-name="clipboard" unicode="&#61006;" d="M776 742.4h-55.936v12.8c0 42.304-34.112 76.8-76.032 76.8H380.032c-41.92 0-76.032-34.432-76.032-76.8v-12.8h-56C181.824 742.4 128 687.872 128 620.8v-627.2c0-67.008 53.824-121.6 120-121.6h528C842.176-128 896-73.408 896-6.4V620.8c0 67.072-53.824 121.6-120 121.6zM368 755.2c0 7.04 5.376 12.8 12.032 12.8h264c6.656 0 12.032-5.76 12.032-12.8v-44.48l-0.064-0.32 0.064-0.32V665.6c0-7.104-5.376-12.8-12.032-12.8H380.032c-6.656 0-12.032 5.76-12.032 12.8V755.2zM832-6.4a56.96 56.96 0 0 0-56-57.6h-528A56.96 56.96 0 0 0 192-6.4V620.8a56.96 56.96 0 0 0 56 57.6h56v-12.8a76.48 76.48 0 0 1 76.032-76.8h264a76.544 76.544 0 0 1 76.032 76.8v12.8h55.936a56.96 56.96 0 0 0 56-57.6v-627.2z"  horiz-adv-x="1024" />

    
    <glyph glyph-name="close" unicode="&#61007;" d="M557.248 384l318.272 318.272a30.016 30.016 0 0 1 0 42.24l-3.008 3.008a29.888 29.888 0 0 1-42.24 0L512 429.248l-316.8 316.8a32.128 32.128 0 0 1-45.248 0 32.128 32.128 0 0 1 0-45.248L466.752 384 148.48 65.728a30.016 30.016 0 0 1 0-42.24l3.008-3.008a30.016 30.016 0 0 1 42.24 0L512 338.752l316.8-316.8a32.128 32.128 0 0 1 45.248 0 32.128 32.128 0 0 1 0 45.248L557.248 384z"  horiz-adv-x="1024" />

    
    <glyph glyph-name="click" unicode="&#61008;" d="M799.808 369.6c-1.472 0.256-3.584 0.64-203.84 18.176V586.048c0 63.808-52.8 115.776-117.696 115.776s-117.696-51.904-117.696-115.776V343.04a113.536 113.536 0 0 1-134.656 16.64 111.168 111.168 0 0 1-43.008-149.952l90.176-271.36a34.624 34.624 0 0 1 2.176-4.992c19.072-37.76 52.992-59.392 93.12-59.392h337.6c84.672 0 119.232 21.248 137.344 86.144 60.48 287.872 60.48 296.96 60.48 300.864 0 54.72-41.856 98.368-104 108.608z m-19.008-391.744c-7.936-28.16-10.88-38.72-76.608-38.72H370.176c-19.968 0-31.168 12.928-37.12 24.256l-89.408 269.184a28.032 28.032 0 0 1-2.624 5.824 48.192 48.192 0 0 0-5.056 37.184 49.408 49.408 0 0 0 23.488 30.272 52.48 52.48 0 0 0 68.032-16.128l36.864-101.312a30.528 30.528 0 0 1 59.2 10.496l-0.128 384.192c0 29.568 24.896 53.632 55.424 53.632s55.424-24.064 55.424-53.632v-224.256c0-15.872 12.096-29.056 27.904-30.4l224.896-19.84c24.576-4.032 50.88-18.176 51.776-45.824-3.136-20.736-37.248-185.472-58.048-284.928zM185.152 564.48h0.192c11.648 148.352 134.4 265.472 285.76 265.472s274.048-117.12 285.76-265.472h0.192a32.384 32.384 0 0 1 64.832 0h0.128l-0.064 0.448v0.064 0.064l-0.128 0.512A351.616 351.616 0 0 1 471.168 894.016a351.488 351.488 0 0 1-349.888-323.968c-0.256-1.728-1.024-3.264-1.024-5.056a32.448 32.448 0 0 1 64.896-0.512z"  horiz-adv-x="1024" />

    
    <glyph glyph-name="close-circle" unicode="&#61009;" d="M512 864C247.36 864 32 648.64 32 384s215.296-480 480-480 480 215.296 480 480S776.704 864 512 864z m188.288-623.04a32 32 0 0 0-45.312-45.248L512 338.752l-143.04-143.04a31.872 31.872 0 0 0-45.312 0 32 32 0 0 0 0 45.248L466.816 384l-143.04 143.04a32 32 0 0 0 45.248 45.248L512 429.248l143.04 143.04a32 32 0 0 0 45.248-45.248L557.248 384l143.04-143.04z"  horiz-adv-x="1024" />

    
    <glyph glyph-name="close-circle-o" unicode="&#61010;" d="M557.248 384l111.744 111.744a32 32 0 0 1-45.248 45.248L512 429.248 400.256 540.992a32 32 0 0 1-45.248-45.248L466.752 384 354.944 272.192a32 32 0 0 1 45.248-45.248L512 338.752l111.808-111.808a32 32 0 0 1 45.248 45.248L557.248 384zM512 864C247.296 864 32 648.64 32 384c0-264.704 215.296-480 480-480s480 215.36 480 480C992 648.704 776.704 864 512 864z m0-896c-229.376 0-416 186.624-416 416S282.624 800 512 800s416-186.624 416-416-186.624-416-416-416z"  horiz-adv-x="1024" />

    
    <glyph glyph-name="cloud" unicode="&#61011;" d="M834.24 1.152H225.28C146.56 6.656 1.856 60.928 1.856 227.328c0 93.568 34.24 206.592 193.28 226.688 12.544 116.544 88.768 296.832 313.408 296.832 91.648 0 166.144-28.352 221.376-84.288 60.224-61.056 86.208-145.152 91.392-212.672 84.032-12.544 204.544-70.976 204.544-231.04 0-162.432-124.48-216-190.336-221.568l-1.28-0.128zM508.544 686.848c-243.072 0-251.008-252.224-251.264-262.976l-0.576-29.056-28.992-2.176c-78.272-5.12-161.856-28.224-161.856-165.312 0-149.12 155.072-161.792 161.664-162.24l603.712 0.064c18.24 2.048 130.624 20.16 130.624 157.696 0 164.032-165.248 169.6-172.288 169.728l-31.616 0.704 0.384 31.68c0.704 55.424-18.24 140.16-73.92 196.608-42.816 43.328-101.952 65.28-175.872 65.28z"  horiz-adv-x="1025" />

    
    <glyph glyph-name="code" unicode="&#61012;" d="M835.584-64H188.416A124.544 124.544 0 0 0 64 60.416V707.52C64 776.192 119.808 832 188.416 832H835.52C904.192 832 960 776.192 960 707.52v-647.104A124.544 124.544 0 0 0 835.584-64zM188.416 768A60.544 60.544 0 0 1 128 707.52v-647.104c0-33.28 27.136-60.416 60.416-60.416H835.52A60.544 60.544 0 0 1 896 60.416V707.52A60.544 60.544 0 0 1 835.584 768H188.416zM375.68 200.384a32.128 32.128 0 0 0-22.656 9.344l-151.68 151.68a32 32 0 0 0 0 45.248l151.68 151.68a32 32 0 0 0 45.248-45.248L269.248 384l129.024-129.024a32 32 0 0 0-22.592-54.592z m272.64 0a32 32 0 0 0-22.656 54.592L754.752 384 625.664 513.024a32 32 0 0 0 45.248 45.248l151.68-151.68a31.744 31.744 0 0 0 0.064-45.248l-151.68-151.68a32.064 32.064 0 0 0-22.656-9.28zM452.032 132.8a32 32 0 0 0-30.912 40.448l120 438.4a32.256 32.256 0 0 0 39.296 22.464 32.128 32.128 0 0 0 22.464-39.36l-120-438.4a32 32 0 0 0-30.848-23.552z"  horiz-adv-x="1024" />

    
    <glyph glyph-name="cloud-download" unicode="&#61013;" d="M641.28 178.432l-88.384-88.384V475.648a32 32 0 0 1-64 0v-385.6l-88.384 88.384a32 32 0 0 1-45.248-45.248l142.976-142.976c1.536-1.536 3.52-2.304 5.248-3.52 1.664-1.152 3.136-2.56 5.056-3.328a32.512 32.512 0 0 1 24.704 0c1.92 0.832 3.456 2.304 5.184 3.456 1.728 1.152 3.648 1.92 5.12 3.392l142.976 142.976a32 32 0 0 1-45.248 45.248zM819.392 490.176c-5.184 67.52-31.168 151.616-91.392 212.672-55.232 55.936-129.728 84.288-221.376 84.288-224.576 0-300.8-180.352-313.344-296.896C34.24 470.144 0 357.184 0 263.616c0-166.464 144.64-220.672 223.424-226.176h51.008a32 32 0 0 1 0 64l-48.704-0.064C219.136 101.888 64 115.52 64 263.616 64 400.64 147.584 423.744 225.792 428.928l28.992 2.176 0.64 28.992c0.256 10.752 8.192 262.976 251.264 262.976 73.92 0 133.12-21.952 175.872-65.28 55.68-56.448 74.624-141.184 73.92-196.608l-0.384-31.68 31.616-0.704c7.04-0.128 172.288-5.696 172.288-169.728 0-141.12-118.4-156.48-129.024-157.632h-56.256a32 32 0 0 1 0-64l58.944 0.128C899.52 43.136 1024 96.576 1024 259.072c0 160.064-120.576 218.496-204.608 231.104z"  horiz-adv-x="1024" />

    
    <glyph glyph-name="cloud-upload" unicode="&#61014;" d="M534.784 504.32a32 32 0 0 1-10.688 7.168c-1.856 0.768-3.904 0.768-5.888 1.152-2.048 0.448-4.032 1.28-6.208 1.28-1.6 0-3.008-0.704-4.544-0.896-2.56-0.384-5.184-0.576-7.616-1.536a31.744 31.744 0 0 1-10.496-6.976L346.368 361.536a32 32 0 0 1 45.248-45.248L480 404.672v-385.536a32 32 0 0 1 64 0V404.672l88.32-88.384a32 32 0 0 1 45.248 45.248L534.784 504.32zM819.392 496.448c-5.184 67.52-31.168 151.616-91.392 212.672-55.232 55.936-129.728 84.288-221.376 84.288-224.576 0-300.8-180.352-313.344-296.896C34.24 476.416 0 363.456 0 269.888c0-166.464 144.64-220.672 223.36-226.176h58.88a32 32 0 0 1 0 64l-56.512-0.064C219.136 108.16 64 121.792 64 269.888 64 406.912 147.584 430.016 225.792 435.2l28.992 2.176 0.576 29.056c0.256 10.752 8.192 262.976 251.264 262.976 73.92 0 133.12-21.952 175.872-65.28 55.68-56.448 74.624-141.184 73.92-196.608l-0.384-31.68 31.68-0.768c7.04-0.128 172.288-5.696 172.288-169.728 0-141.12-118.4-156.48-129.024-157.632h-63.04a32 32 0 0 1 0-64l65.728 0.128C899.52 49.408 1024 102.848 1024 265.344c0 160.064-120.576 218.56-204.608 231.104z"  horiz-adv-x="1024" />

    
    <glyph glyph-name="cloud-site" unicode="&#61015;" d="M638.336 383.296H258.368a32 32 0 0 1-32-31.872 32 32 0 0 1 32-31.872h379.904c17.664 0 32 14.336 32.064 31.872a32 32 0 0 1-32 31.872zM465.024 255.744H258.368c-17.6 0-32-14.336-32-31.872s14.4-31.872 32-31.872h206.656c17.6 0 32 14.336 32 31.872s-14.4 31.872-32 31.872zM819.456 516.544c-5.184 67.52-31.168 151.616-91.392 212.672-55.232 55.936-129.728 84.288-221.44 84.288-224.576 0-300.8-180.288-313.344-296.832C34.24 496.576 0 383.552 0 289.984c0-166.464 144.64-220.672 223.424-226.176h608.96l1.28 0.064C899.52 69.44 1024 123.008 1024 285.44c0 160.128-120.576 218.56-204.544 231.104z m9.92-388.736l-603.712-0.064C219.072 128.192 64 140.864 64 289.984c0 137.088 83.584 160.192 161.792 165.312l28.992 2.176 0.64 29.056c0.192 10.752 8.128 262.976 251.2 262.976 73.92 0 133.12-21.952 175.872-65.28 55.68-56.448 74.624-141.184 73.92-196.608l-0.384-31.68 31.68-0.768C794.752 455.04 960 449.472 960 285.44c0-137.472-112.384-155.584-130.624-157.632z"  horiz-adv-x="1024" />

    
    <glyph glyph-name="codepen" unicode="&#61016;" d="M991.36 224.128c0.064 0.96 0.704 1.728 0.704 2.688v313.6c0 0.96-0.64 1.792-0.704 2.688a31.04 31.04 0 0 1-2.304 9.152c-0.64 1.6-1.152 3.2-2.048 4.672-0.32 0.576-0.384 1.28-0.768 1.792a30.976 30.976 0 0 1-7.424 7.04c-0.512 0.384-0.768 1.088-1.344 1.408l-448 291.2c-0.576 0.384-1.28 0.192-1.856 0.576A30.592 30.592 0 0 1 512 863.616a31.04 31.04 0 0 1-15.616-4.672c-0.576-0.32-1.28-0.192-1.792-0.512L47.296 567.68l-0.576-0.384-0.128-0.064-0.32-0.32a32 32 0 0 1-8.512-8.128c-0.448-0.64-0.512-1.344-0.896-1.984-0.768-1.28-1.152-2.624-1.792-4.032a32.64 32.64 0 0 1-2.496-9.984C32.512 541.952 32 541.248 32 540.416v-313.6c0-0.96 0.64-1.792 0.704-2.816a30.656 30.656 0 0 1 2.304-9.088c0.64-1.6 1.088-3.136 2.048-4.672 0.384-0.576 0.384-1.28 0.832-1.856a31.68 31.68 0 0 1 7.936-7.552c0.32-0.256 0.448-0.64 0.832-0.896l0.32-0.192 0.256-0.192 447.424-290.816c0.512-0.32 1.216-0.192 1.792-0.512a31.168 31.168 0 0 1 15.552-4.608c5.76 0 10.88 1.92 15.616 4.608 0.576 0.32 1.344 0.192 1.856 0.576l448 291.2c1.6 1.024 2.368 2.752 3.712 4.032 1.664 1.536 3.712 2.56 5.056 4.416 0.448 0.576 0.448 1.344 0.832 1.92 0.832 1.408 1.28 2.816 1.856 4.352a29.184 29.184 0 0 1 2.432 9.408zM96 478.912l136.32-95.36L96 288.128V478.912zM512 265.856l-168.192 117.76L512 501.312l168.192-117.696L512 265.856z m32 291.136v215.68l358.784-233.28-166.848-116.8-191.936 134.4z m-64-0.064L288.128 422.592 121.28 539.456 480 772.672v-215.744z m-192-212.416l192-134.336v-215.552l-358.784 233.152L288 344.512z m256-134.336l192 134.4 166.784-116.736L544-5.376v215.552z m247.744 173.376l136.256 95.36v-190.72l-136.256 95.36z"  horiz-adv-x="1024" />

    
    <glyph glyph-name="coffee" unicode="&#61017;" d="M444.16 475.584a28.992 28.992 0 0 1 24.96 43.264c-1.856 3.072-43.008 76.032-4.928 148.352a28.8 28.8 0 1 1-51.008 26.816c-53.248-101.184 3.712-200.128 6.208-204.288 5.12-8.768 14.592-14.144 24.768-14.144zM547.264 478.976a28.928 28.928 0 0 1 25.536 42.24c-0.256 0.448-23.424 46.976 0 91.52a28.8 28.8 0 1 1-50.944 26.88c-37.824-71.808-1.6-142.208-0.064-145.216a28.8 28.8 0 0 1 25.472-15.424zM286.208 490.816a31.808 31.808 0 0 1 42.24-15.68 32.128 32.128 0 0 1 16.064 42.56c-0.32 0.64-28.032 63.232-1.856 121.344 30.016 66.688 3.84 159.808 0.768 170.24a32.192 32.192 0 0 1-61.568-18.304c6.08-20.416 19.456-87.296 2.24-125.568-38.464-85.312 0.384-171.008 2.112-174.592zM845.44-63.744H129.664a32.192 32.192 0 0 1 0-64.256H845.44a32.192 32.192 0 0 1 0 64.256zM785.792 410.304h-36.48a63.744 63.744 0 0 1-57.28 36.544H219.2c-35.328 0-64.128-28.8-64.128-64.128v-115.904a298.688 298.688 0 0 1 298.368-298.368h4.352c114.496 0.128 212.672 65.408 262.72 160.064h65.28a140.928 140.928 0 0 1 0 281.792z m-93.888-143.488a234.368 234.368 0 0 0-234.112-234.112h-4.352a234.368 234.368 0 0 0-234.112 234.112l-0.128 115.776 472.704 0.128v-115.904z m93.888-80.576h-42.112a294.4 294.4 0 0 1 12.48 80.576V352.512h29.632a83.2 83.2 0 0 0 0-166.272z"  horiz-adv-x="1024" />

    
    <glyph glyph-name="collection" unicode="&#61018;" d="M989.376 497.088a51.84 51.84 0 0 1-42.048 35.456l-268.48 39.232-120 243.2c-17.728 35.904-75.904 35.84-93.632 0l-120.064-243.2-268.416-39.168a51.904 51.904 0 0 1-42.176-35.584 52.096 52.096 0 0 1 13.184-53.504l194.24-189.184-45.76-267.136a51.968 51.968 0 0 1 11.456-42.432 53.12 53.12 0 0 1 64.256-12.608L512 58.368l240.128-126.336a52.096 52.096 0 0 1 64.192 12.672 52.416 52.416 0 0 1 11.52 42.432l-45.888 267.2 194.304 189.248a51.84 51.84 0 0 1 13.12 53.504z"  horiz-adv-x="1024" />

    
    <glyph glyph-name="collection-o" unicode="&#61019;" d="M989.376 497.024a51.712 51.712 0 0 1-42.112 35.52l-268.48 39.232-120 243.2c-17.728 35.904-75.904 35.968-93.632 0l-120-243.2-268.48-39.232a51.84 51.84 0 0 1-42.112-35.52 51.84 51.84 0 0 1 13.248-53.504l194.24-189.184-45.824-267.264a52.096 52.096 0 0 1 11.456-42.368 53.12 53.12 0 0 1 64.256-12.608L512 58.368l240.128-126.336a52.096 52.096 0 0 1 64.128 12.672 52.16 52.16 0 0 1 11.52 42.432l-45.888 267.2 194.24 189.184a51.712 51.712 0 0 1 13.248 53.504z m-264.128-208.64a32 32 0 0 1-9.28-28.352l44.672-260.224-233.792 123.008a32.192 32.192 0 0 1-29.76 0L263.04-1.792l44.928 261.888a32.128 32.128 0 0 1-9.216 28.352L109.568 472.704l261.44 38.272a31.808 31.808 0 0 1 24.064 17.472L512 765.248l116.864-236.8c4.608-9.408 13.632-16 24.064-17.6l261.504-38.208-189.184-184.256z"  horiz-adv-x="1024" />

    
    <glyph glyph-name="competitor-analysis" unicode="&#61020;" d="M923.968-13.376c35.712 39.68 58.112 91.712 58.112 149.312a224 224 0 1 1-224-224c43.008 0 82.816 12.736 116.928 33.728 0.384-0.448 0.512-1.024 0.896-1.408l61.568-62.976a31.104 31.104 0 0 1 43.84-0.512l1.408 1.408a31.168 31.168 0 0 1 0.512 43.84l-59.264 60.608z m-325.888 149.312a160 160 0 1 0 320 0 160 160 0 0 0-320 0zM885.376 768.064H138.688C80 768.064 32 719.872 32 660.992v-617.92c0-58.88 48-107.072 106.688-107.072h312.064v0.832c15.808 1.92 28.288 14.912 28.288 31.232s-12.48 29.376-28.288 31.296v0.896h-302.72c-28.608 0-51.968 22.272-51.968 49.536v459.52h832v-94.208l-0.064-0.32 0.064-0.32a32 32 0 0 1 63.872-0.064h0.128V660.992c0 58.88-48 107.072-106.688 107.072zM928 575.36h-832V647.04c0 31.744 23.424 57.728 51.968 57.728h728c28.608 0 52.032-25.984 52.032-57.728v-71.68z"  horiz-adv-x="1024" />

    
    <glyph glyph-name="compass" unicode="&#61021;" d="M512-96.512c-264.704 0-480 215.296-480 480s215.296 480 480 480c264.64 0 480-215.296 480-480s-215.36-480-480-480z m0 896c-229.376 0-416-186.624-416-416s186.624-416 416-416c229.312 0 416 186.624 416 416s-186.624 416-416 416zM322.048 161.536a32 32 0 0 0-30.4 42.112l94.976 284.928a32 32 0 0 0 20.224 20.224l284.928 94.976a32 32 0 0 0 40.512-40.512L637.376 278.4a32 32 0 0 0-20.288-20.288L332.16 163.2a32.512 32.512 0 0 0-10.112-1.664z m120.256 291.648L372.608 244.16l209.024 69.696 69.696 209.024-209.024-69.696z"  horiz-adv-x="1024" />

    
    <glyph glyph-name="component" unicode="&#61022;" d="M800.383997-128H224.000003c-52.671999 0-95.743999 42.88-95.999999 95.487999-0.384 74.687999-0.768 192.831998 0.384 231.231998a31.04 31.04 0 0 0 3.776 14.08c12.416 23.424 29.248 28.288 41.215999 28.287999 19.328 0 32.512-12.288 46.464-25.343999 19.904-18.688 44.672-41.92 91.711999-42.112 4.48 0.832 78.143999 12.288 74.943999 89.279999a88.383999 88.383999 0 0 1-79.935999 86.655999h-0.064c-34.56 0-58.687999-20.544-80.063999-38.655999-18.112-15.36-33.664-28.672-54.656-28.672a46.144 46.144 0 0 0-36.607999 18.624 31.744 31.744 0 0 0-6.784 19.712V550.399993c0 52.927999 43.072 95.999999 95.999999 95.999999h193.407998c-21.376 19.904-45.76 50.752-44.736 103.487999A152.319999 152.319999 0 0 0 525.312 895.99999C627.583999 895.99999 684.159998 817.663991 686.399998 743.935991c1.344-45.888-21.504-76.799999-42.815999-97.983999l156.863998-0.128c52.927999 0 95.935999-43.136 95.935999-95.999999V-32.000001c0-52.927999-43.072-95.999999-95.999999-95.999999zM191.808003 154.815997c-0.384-52.415999-0.064-131.711999 0.192-186.943998A32.128 32.128 0 0 1 224.000003-64.000001h576.383994c17.6 0 32 14.4 32 32V549.823993a32 32 0 0 1-31.936 32l-218.495998 0.192a31.872 31.872 0 0 0-28.031999 16.64c-19.712 35.904 10.944 62.655999 29.247999 78.719999 24.192 21.184 40 37.12 39.232 64.704C621.311999 778.239991 595.007999 831.999991 526.72 831.999991c-57.791999-0.448-88.959999-48.64-89.663999-83.328-0.704-34.944 16.576-49.28 36.479999-65.855999 18.304-15.232 45.952-38.208 35.2-76.927999a31.936 31.936 0 0 0-30.784-23.488H224.384003a32 32 0 0 1-32-32v-184.511998c25.152 20.992 61.311999 47.744 111.935999 47.744 60.607999-1.792 142.015999-48.832 146.111999-148.159999 4.48-110.591999-86.655999-150.207999-135.487999-155.711998a183.359998 183.359998 0 0 0-123.135999 45.055999z"  horiz-adv-x="1024" />

    
    <glyph glyph-name="competitor-search" unicode="&#61023;" d="M600.64 415.488c1.024 1.024 2.304 1.728 3.328 2.752 27.264 27.264 42.24 63.488 42.24 102.016 0 38.528-14.976 74.752-42.24 102.016-54.4 54.464-149.44 54.528-204.032 0a144.448 144.448 0 0 1 0-204.032c1.024-1.024 2.304-1.792 3.392-2.752a219.328 219.328 0 0 1-121.28-195.52 32 32 0 0 1 32-32h375.872c17.728 0 32 14.336 32.064 32a219.456 219.456 0 0 1-121.344 195.52zM445.184 577.024c15.168 15.232 35.328 23.552 56.768 23.552 21.504 0 41.664-8.384 56.768-23.552 15.168-15.168 23.488-35.328 23.488-56.768 0-21.44-8.32-41.6-23.488-56.768-30.336-30.272-83.264-30.336-113.536 0a80.384 80.384 0 0 0 0 113.536z m-95.872-325.056a156.16 156.16 0 0 0 152.64 124.032 156.16 156.16 0 0 0 152.64-124.032h-305.28zM982.592-49.984l-128.96 128.96a464.448 464.448 0 0 1 115.84 307.712 465.536 465.536 0 0 1-137.344 331.392A465.536 465.536 0 0 1 500.736 855.424 465.856 465.856 0 0 1 169.28 718.08C80.768 629.568 32 511.872 32 386.688s48.768-242.88 137.28-331.328a465.664 465.664 0 0 1 331.456-137.344 464.832 464.832 0 0 1 307.648 115.712l128.96-128.96a32.128 32.128 0 0 1 45.248 0 32 32 0 0 1 0 45.248z m-481.856 31.936a402.24 402.24 0 0 0-286.208 118.592A402.048 402.048 0 0 0 96 386.688c0 108.096 42.048 209.664 118.528 286.144s178.112 118.592 286.208 118.592c108.096 0 209.664-42.176 286.144-118.592a401.856 401.856 0 0 0 118.592-286.144 402.24 402.24 0 0 0-118.592-286.144 401.856 401.856 0 0 0-286.144-118.592z"  horiz-adv-x="1024" />

    
    <glyph glyph-name="contacts" unicode="&#61024;" d="M63.04 450.624h160.384a32 32 0 0 1-0.064 64H63.04a32 32 0 0 1 0-64zM255.36 227.456c0 17.664-14.336 32-32 31.936H63.04a32 32 0 0 1 0-64h160.384c17.664 0 32 14.336 31.936 32.064zM63.04 323.264h160.384a32 32 0 0 1-0.064 64H63.04a32 32 0 0 1 0-64zM889.536 832H194.688c-56 0-101.504-43.072-101.504-96v-109.312a32 32 0 0 1 64 0V736c0 17.664 16.832 32 37.504 32h694.848c20.672 0 37.504-14.336 37.504-32v-768c0-17.6-16.832-32-37.504-32H194.688c-20.672 0-37.504 14.4-37.504 32v114.688a32 32 0 0 1-64 0V-32c0-52.928 45.504-96 101.504-96h694.848c55.936 0 101.504 43.072 101.504 96v768c0 52.928-45.568 96-101.504 96zM373.76 151.36a32 32 0 0 1 32-32h375.936a32.128 32.128 0 0 1 32.064 32A219.52 219.52 0 0 1 692.48 346.88c1.024 0.96 2.24 1.664 3.2 2.624a143.36 143.36 0 0 1 42.24 102.08c0 38.592-14.976 74.816-42.24 102.016-54.4 54.464-149.44 54.592-204.032 0a144.448 144.448 0 0 1 0-204.032c1.024-1.024 2.304-1.728 3.328-2.752a219.52 219.52 0 0 1-121.216-195.456z m163.136 357.056c15.232 15.168 35.328 23.488 56.768 23.488a79.808 79.808 0 0 0 80.256-80.192c0-21.44-8.32-41.664-23.488-56.832-30.272-30.272-83.072-30.336-113.536 0a80.512 80.512 0 0 0 0 113.536z m56.896-201.088a156.288 156.288 0 0 0 152.64-123.968H441.088a156.16 156.16 0 0 0 152.704 123.968z"  horiz-adv-x="1024" />

    
    <glyph glyph-name="customer-service" unicode="&#61025;" d="M893.44 527.296C888.256 713.728 718.976 864 511.168 864 303.168 864 133.76 713.472 128.832 526.784A127.872 127.872 0 0 1 32 403.072v-96.064c0-70.592 57.408-128 128-128h12.288a83.456 83.456 0 0 1 83.2 83.2V447.872c0 38.4-26.688 69.44-62.144 78.912C198.4 678.08 338.56 800 511.168 800c172.736 0 312.96-122.048 317.888-273.536-34.624-10.048-60.544-40.768-60.544-78.592v-185.664c0-41.28 30.72-74.048 70.144-80.576-8.768-38.208-39.68-99.904-145.6-108.288A121.6 121.6 0 1 1 581.248-96c61.824 0 112.32 46.272 120 105.984 158.72 13.76 194.624 124.8 202.496 176a127.744 127.744 0 0 1 88.192 121.024V403.072a127.808 127.808 0 0 1-98.496 124.224zM191.488 262.208a19.2 19.2 0 0 0-19.2-19.2H160c-35.264 0-64 28.672-64 64V403.072c0 35.264 28.736 64 64 64h12.288c10.432 0 19.2-8.768 19.2-19.2v-185.664z m389.76-294.144a57.6 57.6 0 1 0 0 115.2 57.6 57.6 0 0 0 0-115.2zM928 307.008a64 64 0 0 0-64-64h-12.288a19.52 19.52 0 0 0-19.2 19.2V447.872c0 10.432 8.832 19.2 19.2 19.2h12.288c35.328 0 64-28.736 64-64v-96.064z"  horiz-adv-x="1024" />

    
    <glyph glyph-name="copy" unicode="&#61026;" d="M875.84 703.744h-173.696v31.936c0 52.928-37.696 96-84.16 96H265.6a32 32 0 0 1-24.32-11.2L71.68 621.76a31.616 31.616 0 0 1-7.68-20.736v-441.344c0-52.928 37.76-96 84.16-96h173.696v-32c0-52.928 37.76-96 84.224-96h469.76c46.4 0 84.16 43.072 84.16 96.064v576c0 52.928-37.696 96-84.16 96z m-626.432 27.712v-113.92H152.192l97.216 113.92z m-101.248-603.776c-9.472 0-20.16 13.696-20.16 32V553.536h153.408a32 32 0 0 1 32 32V767.68h304.576c9.472 0 20.16-13.696 20.16-32v-31.936H523.456a32 32 0 0 1-24.32-11.2l-169.6-198.72a31.872 31.872 0 0 1-7.68-20.8v-15.168l-0.064-0.32 0.064-0.32v-329.536H148.16z m359.04 475.712v-113.856H409.984l97.216 113.856z m388.736-571.712c0-18.304-10.688-32-20.16-32h-469.76c-9.536 0-20.224 13.696-20.224 32V425.536h153.408a32 32 0 0 1 32 32V639.68h304.576c9.472 0 20.16-13.696 20.16-32v-576z"  horiz-adv-x="1024" />

    
    <glyph glyph-name="dashboard" unicode="&#61027;" d="M512 764.224c-265.088 0-480-229.12-480-511.808 0-72.384 14.144-122.624 39.68-185.024h880.64c25.536 62.464 39.68 112.576 39.68 185.024 0 282.688-214.976 511.808-480 511.808z m399.936-634.304H112.064a472.576 472.576 0 0 0-16.064 122.176C96 498.176 282.24 697.6 512 697.6c229.696 0 416-199.424 416-445.504 0-42.432-5.696-83.392-16.064-122.176zM511.616 540.992c17.6 0 32 14.4 32 32v37.504c0 17.6-14.4 32-32 32s-32-14.4-32-32v-37.504c0-17.6 14.4-32 32-32zM785.28 513.088a32.064 32.064 0 0 1-43.712 11.712l-32.448-18.752a32.064 32.064 0 0 1 32-55.424l32.448 18.752a32.128 32.128 0 0 1 11.712 43.712zM784.256 294.912c0-17.6 14.4-32 32-32h37.504c17.6 0 32 14.4 32 32s-14.4 32-32 32h-37.504c-17.6 0-32-14.4-32-32zM326.4 506.048L293.952 524.8a32.128 32.128 0 0 1-43.712-11.712 32.128 32.128 0 0 1 11.712-43.712l32.448-18.752a32.064 32.064 0 0 1 32 55.424zM207.744 326.912H170.24c-17.6 0-32-14.4-32-32s14.4-32 32-32h37.504c17.6 0 32 14.4 32 32s-14.4 32-32 32zM604.096 443.52a32 32 0 0 1-42.368-15.936l-56.192-123.968a63.36 63.36 0 0 1-57.536-62.656 64 64 0 0 1 128 0 62.336 62.336 0 0 1-12.416 35.84l56.384 124.416a32 32 0 0 1-15.872 42.304z"  horiz-adv-x="1024" />

    
    <glyph glyph-name="delete" unicode="&#61028;" d="M415.424 428.8c-19.2 0-32-12.8-32-32V128c0-19.2 12.8-32 32-32s32 12.8 32 32V396.8c0 19.2-12.8 32-32 32zM610.624 428.8c-19.2 0-32-12.8-32-32V128c0-19.2 12.8-32 32-32s32 12.8 32 32V396.8c0 19.2-12.8 32-32 32zM915.2 652.8h-192v57.6c0 70.4-51.2 121.6-121.6 121.6H422.4c-70.4 0-121.6-51.2-121.6-121.6v-57.6h-192c-19.2 0-32-12.8-32-32s12.8-32 32-32h57.6v-595.2c0-70.4 51.2-121.6 121.6-121.6h448c70.4 0 121.6 51.2 121.6 121.6V588.8h57.6c19.2 0 32 12.8 32 32s-12.8 32-32 32z m-550.4 57.6c0 32 25.6 57.6 57.6 57.6h179.2c32 0 57.6-25.6 57.6-57.6v-57.6H364.8v57.6z m428.8-716.8c0-32-25.6-57.6-57.6-57.6h-448c-32 0-57.6 25.6-57.6 57.6V588.8h563.2v-595.2z"  horiz-adv-x="1024" />

    
    <glyph glyph-name="desktop" unicode="&#61029;" d="M870.4 819.2H153.6C83.2 819.2 32 768 32 697.6v-448c0-70.4 51.2-121.6 121.6-121.6h326.4v-115.2H332.8c-19.2 0-32-12.8-32-32s12.8-32 32-32h358.4c19.2 0 32 12.8 32 32s-12.8 32-32 32H544V128h326.4c70.4 0 121.6 51.2 121.6 121.6v448c0 70.4-51.2 121.6-121.6 121.6z m57.6-569.6c0-32-25.6-57.6-57.6-57.6H153.6c-32 0-57.6 25.6-57.6 57.6v448c0 32 25.6 57.6 57.6 57.6h716.8c32 0 57.6-25.6 57.6-57.6v-448z"  horiz-adv-x="1024" />

    
    <glyph glyph-name="data" unicode="&#61030;" d="M711.207099 236.690414a31.996 31.996 0 1 1 32.635921 55.097113 446.984127 446.984127 0 0 1-88.116986 38.907136c77.750281 47.674041 130.223722 132.655418 130.223722 230.371204a271.1981 271.1981 0 0 1-270.87814 270.87814 271.1981 271.1981 0 0 1-270.87814-270.87814c0-97.395826 52.153481-182.249219 129.51981-229.987252-179.049619-59.448569-308.697413-228.259468-308.697413-426.95463a31.996 31.996 0 0 1 31.996001-31.996001h319.576053a31.996 31.996 0 1 1-0.063992 63.992001H130.607674l0.191976 3.83952c0.511936 5.567304 1.407824 11.006624 2.175728 16.509936 0.95988 7.03912 1.855768 14.07824 3.1996 20.989377 1.087864 5.503312 2.431696 10.87864 3.775528 16.31796 1.5998 6.655168 3.1996 13.310336 5.11936 19.901512 1.5998 5.375328 3.455568 10.686664 5.311336 15.998 2.175728 6.335208 4.415448 12.606424 6.911136 18.813649 2.111736 5.247344 4.47944 10.366704 6.783153 15.486064 2.751656 5.951256 5.503312 11.902512 8.510936 17.661792a481.6038 481.6038 0 0 0 18.301712 31.420073 415.11611 415.11611 0 0 0 31.804024 42.490688 387.91951 387.91951 0 0 0 67.511562 61.816273c4.543432 3.263592 9.022872 6.527184 13.694288 9.598801 5.503312 3.583552 11.1986 6.975128 16.893888 10.302712 4.7994 2.815648 9.470816 5.631296 14.3982 8.254968 5.951256 3.135608 12.030496 5.951256 18.109737 8.766904 5.11936 2.303712 10.046744 4.735408 15.102112 6.783152 6.3992 2.623672 12.990376 4.863392 19.51756 7.167104 5.055368 1.791776 10.046744 3.711536 15.166104 5.247344 7.03912 2.175728 14.334208 3.775528 21.565305 5.567304 4.863392 1.151856 9.5988 2.55968 14.526184 3.51956 8.190976 1.663792 16.573928 2.687664 24.95688 3.83952 4.15948 0.575928 8.254968 1.407824 12.47844 1.791777a385.551806 385.551806 0 0 0 234.594676-51.513561z m-403.085614 324.439445A207.142107 207.142107 0 0 0 515.007624 768.015998a207.142107 207.142107 0 0 0 206.886139-206.886139 207.142107 207.142107 0 0 0-206.886139-206.886139 207.078115 207.078115 0 0 0-206.886139 206.886139zM926.988126-63.880015h-383.952006a31.996 31.996 0 0 1 0-63.992001h383.952006a31.996 31.996 0 0 1 0 63.992001zM926.988126 62.120235h-383.952006a31.996 31.996 0 0 1 0-63.992001h383.952006a31.996 31.996 0 0 1 0 63.992001zM511.04012 160.411949a31.996 31.996 0 0 1 31.996-31.996001h383.952006a31.996 31.996 0 0 1 0 63.992001h-383.952006a31.996 31.996 0 0 1-31.996-31.996z"  horiz-adv-x="1024" />

    
    <glyph glyph-name="disconnect" unicode="&#61031;" d="M165.888 603.52l-96.896 32.32a32.256 32.256 0 1 1-20.352-61.376l96.896-32.32a32.448 32.448 0 0 1 41.92 37.12 32.576 32.576 0 0 1-21.568 24.256z m77.248 121.408L146.24 821.824a32.384 32.384 0 1 1-45.696-45.696l96.896-96.896a32.32 32.32 0 0 1 45.696 45.696z m678.4-710.72l-96.896 96.896a32.32 32.32 0 0 1-45.696-45.696l96.896-96.896a32.32 32.32 0 0 1 45.696 45.696zM381.824 734.4V831.296a32.32 32.32 0 1 1-64.64 0V734.4a32.32 32.32 0 1 1 64.64 0z m324.8-775.872V56a32.32 32.32 0 1 1-64.64 0v-97.472a32.32 32.32 0 1 1 64.64 0zM851.392 167.36l96.832 3.392a32.256 32.256 0 0 1 26.24 49.472 32.448 32.448 0 0 1-28.544 15.168L849.088 232a32.32 32.32 0 1 1 2.304-64.64zM312.064-96.32a273.28 273.28 0 0 0-193.984 80.256A272.64 272.64 0 0 0 37.696 177.92c0 73.344 28.544 142.208 80.384 193.984l134.08 134.08a32 32 0 0 0 45.248-45.248l-134.144-134.08c-39.744-39.744-61.568-92.544-61.568-148.736s21.888-108.992 61.632-148.736a210.624 210.624 0 0 1 297.472 0L597.312 165.76a32 32 0 0 0 45.248-45.248L506.048-16.064a273.536 273.536 0 0 0-193.984-80.256z m434.56 334.144a32 32 0 0 0-22.656 54.592L872 440.448a210.624 210.624 0 0 1 0 297.472c-79.488 79.488-217.984 79.488-297.472 0L423.872 587.264a32 32 0 0 0-45.248 45.248l150.72 150.72c51.84 51.84 120.704 80.384 193.984 80.384s142.208-28.544 193.984-80.384a274.688 274.688 0 0 0 0-387.968L769.28 247.232a32 32 0 0 0-22.656-9.408z"  horiz-adv-x="1024" />

    
    <glyph glyph-name="down" unicode="&#61032;" d="M512 192a32.256 32.256 0 0 0-22.656 9.344l-320 320a32 32 0 0 0 45.248 45.248L512 269.248l297.344 297.344a32 32 0 0 0 45.248-45.248l-320-320A32 32 0 0 0 512 192z"  horiz-adv-x="1024" />

    
    <glyph glyph-name="diamond" unicode="&#61033;" d="M1015.6288 545.92l-253.568 273.856a32.128 32.128 0 0 1-23.488 10.24H271.6288a32 32 0 0 1-24.064-10.88L8.0768 546.304a32 32 0 0 1-0.192-41.92l480-559.168a31.808 31.808 0 0 1 48.512-0.064l480 558.144a32 32 0 0 1-0.768 42.624z m-739.264-55.808l144.064-368.192L104.3968 490.112h171.968z m395.2 0l-163.264-417.088-163.2 417.088h326.464z m-309.184 64l145.984 193.92 145.984-193.92H362.3808z m377.92-64h180.352l-330.88-384.768 150.528 384.768z m180.352 64h-186.304l-159.424 211.84h149.568l196.16-211.84z m-634.56 211.84H441.6768l-159.424-211.84H100.1088l185.984 211.84z"  horiz-adv-x="1024" />

    
    <glyph glyph-name="down-circle" unicode="&#61034;" d="M851.328 723.392A476.8 476.8 0 0 1 511.872 864C383.68 864 263.104 814.08 172.48 723.392c-187.136-187.136-187.136-491.648 0-678.784A476.672 476.672 0 0 1 511.872-96c128.256 0 248.832 49.92 339.456 140.608 90.688 90.688 140.608 211.2 140.608 339.392s-49.92 248.768-140.608 339.392z m-124.8-290.304l-192-192a31.872 31.872 0 0 0-45.312 0l-192 192a32 32 0 0 0 45.248 45.248l169.344-169.344 169.344 169.344a32 32 0 0 0 45.376-45.248z"  horiz-adv-x="1024" />

    
    <glyph glyph-name="down-circle-o" unicode="&#61035;" d="M512-96a476.864 476.864 0 0 0-339.392 140.544c-187.136 187.2-187.136 491.712 0 678.848C263.232 814.08 383.808 864 512 864s248.768-49.92 339.456-140.608c187.136-187.136 187.136-491.648 0-678.848A477.12 477.12 0 0 0 512-96z m0 896a413.12 413.12 0 0 1-294.144-121.856c-162.24-162.176-162.176-426.112 0-588.352C296.384 11.264 400.896-32 512-32s215.616 43.264 294.208 121.792a416.576 416.576 0 0 1 0 588.352A413.44 413.44 0 0 1 512 800z m0-568.256a32.128 32.128 0 0 0-22.656 9.344l-192 192a32 32 0 0 0 45.248 45.248L512 308.992l169.344 169.344a32 32 0 0 0 45.248-45.248l-192-192A31.872 31.872 0 0 0 512 231.744z"  horiz-adv-x="1024" />

    
    <glyph glyph-name="edit" unicode="&#61036;" d="M176 96h179.2a31.552 31.552 0 0 1 22.592 9.344l492.8 492.864a32 32 0 0 1 0 45.248l-179.2 179.2a32.896 32.896 0 0 1-45.248 0l-492.8-492.8a32.256 32.256 0 0 1-9.344-22.656V128a32 32 0 0 1 32-32z m492.8 658.752l133.952-133.888-79.36-79.424L589.44 675.392l79.36 79.36z m-460.8-460.8l336.192 336.192 133.952-133.888L341.952 160H208V293.952zM960-64H64a32 32 0 0 1 0-64h896a32 32 0 0 1 0 64z"  horiz-adv-x="1024" />

    
    <glyph glyph-name="download" unicode="&#61037;" d="M994.88 216.96v0.96a31.104 31.104 0 0 1-30.976 30.976h-1.984a31.104 31.104 0 0 1-30.976-30.976v-217.408h-832V216.96h-0.064v0.96a31.104 31.104 0 0 1-30.976 30.976H65.92a31.104 31.104 0 0 1-30.976-30.976v-230.208c0-28.16 23.04-51.2 51.2-51.2h857.6c28.16 0 51.2 23.04 51.2 51.2V216.96h-0.064zM489.92 204.032c0.384-0.512 0.96-0.704 1.408-1.152l2.368-2.432c0.512-0.448 0.768-1.152 1.344-1.536 0.768-0.64 1.728-0.768 2.56-1.28 1.152-0.768 2.304-1.536 3.52-2.176 1.088-0.512 2.176-0.896 3.328-1.344a27.072 27.072 0 0 1 4.48-1.152c1.408-0.256 2.688-0.512 4.096-0.576 0.64-0.064 1.216-0.384 1.856-0.384s1.216 0.32 1.856 0.384c1.408 0.064 2.752 0.32 4.096 0.576a33.664 33.664 0 0 1 7.808 2.496c1.28 0.576 2.368 1.408 3.52 2.176 0.832 0.512 1.792 0.704 2.56 1.28 0.576 0.448 0.832 1.088 1.344 1.536l2.368 2.432c0.448 0.448 1.024 0.704 1.408 1.152l153.216 193.344a32 32 0 0 1-50.112 39.744l-96-121.28V799.488c0 17.6-14.4 32-32 32s-32-14.4-32-32v-483.584L387.904 435.84a32.064 32.064 0 0 1-50.176-39.744l152.192-192.064z"  horiz-adv-x="1024" />

    
    <glyph glyph-name="edit-square" unicode="&#61038;" d="M865.6 264.832a32 32 0 0 1-32-32V-6.4a57.6 57.6 0 0 0-57.6-57.536H153.6a57.6 57.6 0 0 0-57.6 57.536V644.992c0 31.744 25.856 57.6 57.6 57.6h239.232a32 32 0 0 1 0 64H153.6c-67.072 0-121.6-54.528-121.6-121.6v-651.456C32-73.408 86.528-128 153.6-128h622.4a121.728 121.728 0 0 1 121.6 121.6v239.232a32 32 0 0 1-32 32zM982.592 643.456l-179.2 179.2a32 32 0 0 1-45.248 0l-448-448A32.256 32.256 0 0 1 300.8 352v-179.264a32 32 0 0 1 32-32H512c8.512 0 16.64 3.392 22.592 9.472l448 448a32 32 0 0 1 0 45.248z m-483.84-438.72H364.8V338.752l304.896 304.896 136.96-131.072-307.904-307.84z m353.152 353.152l-136.96 131.072L780.8 754.752l133.952-134.016-62.848-62.848z"  horiz-adv-x="1024" />

    
    <glyph glyph-name="export" unicode="&#61039;" d="M736.512 76.608a32 32 0 0 1-32-32v-51.008a56.96 56.96 0 0 0-56-57.6h-528a56.96 56.96 0 0 0-56 57.6V710.4c0 31.808 25.152 57.6 56 57.6h320v-236.8a32 32 0 0 1 32-32h232v-54.592a32 32 0 0 1 64 0V531.2a31.872 31.872 0 0 1-2.496 12.224c-0.896 2.112-2.432 3.776-3.712 5.632-1.024 1.536-1.728 3.264-3.008 4.544l-264 268.8-0.128 0.128A32.64 32.64 0 0 1 472.512 832h-352C54.336 832 0.512 777.408 0.512 710.4v-716.8c0-67.072 53.824-121.6 120-121.6h528c66.176 0 120 54.528 120 121.6v51.008a32 32 0 0 1-32 32zM504.512 721.728L660.224 563.2H504.512V721.728zM1014.144 246.656l-128 128a32 32 0 0 1-45.248-45.248L914.24 256H457.536a32 32 0 0 1 0-64h456.704l-73.344-73.344a32 32 0 0 1 45.312-45.248l128 128a32.064 32.064 0 0 1-0.064 45.248z"  horiz-adv-x="1024" />

    
    <glyph glyph-name="eye" unicode="&#61040;" d="M512 7.936c-321.536 0-501.12 351.808-508.608 366.784a32.128 32.128 0 0 0 0 28.608C10.88 418.304 190.464 770.112 512 770.112s501.12-351.808 508.608-366.784a32.127 32.127 0 0 0 0-28.608C1013.12 359.744 833.536 7.936 512 7.936zM68.48 388.992c36.16-63.68 195.904-317.056 443.52-317.056 248.192 0 407.488 253.44 443.52 317.056-36.096 63.552-195.84 317.12-443.52 317.12-247.616 0-407.36-253.504-443.52-317.12zM512 226.112a163.136 163.136 0 0 0-162.944 162.88A163.136 163.136 0 0 0 512 551.872a163.072 163.072 0 0 0 162.88-162.88A162.944 162.944 0 0 0 512 226.112z m0 261.824c-54.592 0-98.944-44.352-98.944-98.88s44.416-98.944 98.944-98.944a99.008 99.008 0 0 1 0 197.824z"  horiz-adv-x="1024" />

    
    <glyph glyph-name="eye-o" unicode="&#61041;" d="M1020.608 403.328C1013.12 418.304 833.472 770.112 512 770.112c-321.536 0-501.12-351.808-508.608-366.784a32.128 32.128 0 0 1 0-28.608C10.816 359.68 190.4 7.872 512 7.872c321.536 0 501.12 351.808 508.608 366.784a32.256 32.256 0 0 1 0 28.672zM512 196.992c-105.856 0-192 86.144-192 192s86.144 192 192 192 192-86.144 192-192-86.208-192-192-192z m-128 192a128 128 0 1 1 256 0 128 128 0 1 1-256 0z"  horiz-adv-x="1024" />

    
    <glyph glyph-name="file" unicode="&#61042;" d="M893.504 543.424c-1.152 2.688-2.944 4.928-4.736 7.168-0.768 0.96-1.152 2.176-1.984 3.072l-0.128 0.128-263.872 268.672-0.064 0.064A32.64 32.64 0 0 1 600 832h-352C181.824 832 128 777.472 128 710.4v-716.8c0-67.008 53.888-121.6 120-121.6h528C842.176-128 896-73.408 896-6.4V531.2a31.872 31.872 0 0 1-2.496 12.224zM632 721.728L787.712 563.2H632V721.728zM776-64h-528A56.96 56.96 0 0 0 192-6.4V710.4a56.96 56.96 0 0 0 56 57.6h320v-236.8a32 32 0 0 1 32-32H832v-505.6a56.96 56.96 0 0 0-56-57.6z"  horiz-adv-x="1024" />

    
    <glyph glyph-name="file-code" unicode="&#61043;" d="M893.504 543.424c-0.768 1.856-2.112 3.264-3.2 4.864-1.152 1.792-1.984 3.776-3.52 5.312l-264 268.8c0 0.128-0.064 0.128-0.128 0.192A32.384 32.384 0 0 1 600 832h-352C181.824 832 128 777.472 128 710.4v-716.8c0-67.008 53.824-121.6 120-121.6h528C842.176-128 896-73.408 896-6.4V531.2a31.872 31.872 0 0 1-2.496 12.224zM632 721.728L787.712 563.2H632V721.728zM776-64h-528A56.96 56.96 0 0 0 192-6.4V710.4a56.96 56.96 0 0 0 56 57.6h320v-236.8a32 32 0 0 1 32-32H832v-505.6a56.96 56.96 0 0 0-56-57.6zM427.392 124.032l-93.12 87.36 93.12 87.36a32 32 0 0 1-43.84 46.656l-117.952-110.72-1.536-1.536a31.872 31.872 0 0 1 1.536-45.12l117.952-110.656a32.064 32.064 0 0 1 43.84 46.656zM639.36 345.408a32 32 0 0 1-43.776-46.656l93.184-87.424-93.184-87.36a32.128 32.128 0 0 1 21.952-55.296 31.488 31.488 0 0 1 21.824 8.704l118.016 110.72 1.472 1.472a32 32 0 0 1-1.472 45.12L639.36 345.408zM567.104 402.176a32 32 0 0 1-39.68-21.76l-93.312-320.064a32 32 0 0 1 61.44-17.856l93.312 320a32 32 0 0 1-21.76 39.68z"  horiz-adv-x="1024" />

    
    <glyph glyph-name="film" unicode="&#61044;" d="M784.32 766.4H183.744a115.84 115.84 0 0 1-115.712-115.712v-600.512a115.84 115.84 0 0 1 115.712-115.776h600.576a115.84 115.84 0 0 1 115.712 115.712V650.688a115.84 115.84 0 0 1-115.712 115.712z m-76.288-255.936h128v-128.064h-128V510.464z m-64-128.064h-320v320h320v-320z m-384 0h-128V510.464h128v-128.064z m-128-64h128v-128h-128v128z m192 0h320v-320h-320v320z m384 0h128v-128h-128v128z m128 332.288v-76.224h-128V702.4h76.288c28.544 0 51.712-23.168 51.712-51.712zM183.744 702.464v-0.064h76.288v-127.936h-128V650.752c0 28.544 23.168 51.712 51.712 51.712z m-51.712-652.288v76.224h128v-128H183.744a51.84 51.84 0 0 0-51.712 51.776z m652.288-51.776h-76.288v128h128v-76.224a51.84 51.84 0 0 0-51.712-51.776z"  horiz-adv-x="1024" />

    
    <glyph glyph-name="file-plus" unicode="&#61045;" d="M931.328 96h-128v128a32 32 0 0 1-64 0v-128h-128a32 32 0 0 1 0-64h128v-128a32 32 0 0 1 64 0v128h128a32 32 0 0 1 0 64zM569.984 510.592h232v-147.2a32 32 0 0 1 64 0v179.2a31.872 31.872 0 0 1-2.496 12.224c-1.152 2.752-3.008 5.056-4.864 7.36-0.704 0.896-1.088 2.048-1.92 2.88l-0.128 0.128-0.064 0.064L592.768 833.856 592.704 833.92a32.64 32.64 0 0 1-22.72 9.472h-352c-66.176 0-120-54.528-120-121.6V-6.4c0-67.008 53.824-121.6 120-121.6h309.632a32 32 0 1 1-0.064 64H217.984a56.96 56.96 0 0 0-56 57.6V721.792a56.96 56.96 0 0 0 56 57.6h320v-236.8a32 32 0 0 1 32-32z m32 222.528l155.712-158.528H601.984V733.12z"  horiz-adv-x="1024" />

    
    <glyph glyph-name="filetext" unicode="&#61046;" d="M894.848 544.896c-0.384 0.96-1.216 1.728-1.728 2.624-1.408 2.624-2.816 5.312-4.928 7.488l-264 268.8-0.192 0.128a32.832 32.832 0 0 1-22.656 9.408h-352c-66.176 0-120-54.528-120-121.6v-716.8c0-67.008 53.824-121.6 120-121.6h528c66.176 0 120 54.528 120.064 121.664V532.544a31.36 31.36 0 0 1-2.56 12.352zM633.344 723.072l155.712-158.528H633.344V723.072z m144-785.728h-528a56.96 56.96 0 0 0-56 57.6v716.8c0 31.744 25.152 57.6 56 57.6h320v-236.8a32 32 0 0 1 32-32h232v-505.6a56.96 56.96 0 0 0-56-57.6zM689.344 321.984h-352a32 32 0 0 1 0-64h352a32 32 0 0 1 0 64zM689.344 130.304h-352a32 32 0 0 1 0-64h352a32 32 0 0 1 0 64zM337.344 449.984h88a32 32 0 0 1 0 64H337.344a32 32 0 0 1 0-64z"  horiz-adv-x="1024" />

    
    <glyph glyph-name="filter" unicode="&#61047;" d="M575.616-51.2a32.192 32.192 0 0 0-13.504 3.008l-192.384 89.536a32 32 0 0 0-18.496 28.992V352L13.184 766.976A32 32 0 0 0 38.016 819.2h896a31.936 31.936 0 0 0 24.448-52.672L607.616 351.68V-19.2a32 32 0 0 0-32-32zM415.232 90.752l128.384-59.776V363.392c0 7.552 2.688 14.848 7.552 20.672L865.024 755.2h-759.68L408 383.552c4.608-5.696 7.168-12.8 7.168-20.16v-272.64z"  horiz-adv-x="1024" />

    
    <glyph glyph-name="flag" unicode="&#61048;" d="M893.952 808.256a32.32 32.32 0 0 1-45.632 2.112c-0.384-0.384-41.088-35.968-157.12-35.968-60.992 0-112.64 20.672-167.36 42.496C465.984 840.064 406.144 864 332.8 864c-143.488 0-196.288-48.64-201.856-54.144A32.256 32.256 0 0 1 121.6 787.2V-64a32 32 0 0 1 64 0v297.024c17.984 10.368 62.272 29.376 147.2 29.376 61.056 0 112.704-20.672 167.36-42.56 57.856-23.104 117.696-47.04 191.04-47.04 143.552 0 196.288 48.64 201.856 54.144a32.256 32.256 0 0 1 9.344 22.656V787.2a32.128 32.128 0 0 1-8.448 21.056zM838.4 266.112c-18.112-10.368-62.656-29.312-147.2-29.312-60.992 0-112.64 20.608-167.36 42.56C465.984 302.464 406.144 326.4 332.8 326.4c-67.776 0-115.328-10.816-147.2-22.912v467.2c18.112 10.432 62.656 29.312 147.2 29.312 61.056 0 112.704-20.672 167.36-42.496 57.856-23.168 117.696-47.104 191.04-47.104 67.84 0 115.328 10.88 147.2 22.912v-467.2z"  horiz-adv-x="1024" />

    
    <glyph glyph-name="folder" unicode="&#61049;" d="M895.296 634.88H510.848l-19.52 64.128A96.192 96.192 0 0 1 398.912 768H129.408a97.28 97.28 0 0 1-96.64-97.536v-636.928c0-53.76 43.328-97.536 96.64-97.536h765.888a97.28 97.28 0 0 1 96.704 97.536V537.344a97.28 97.28 0 0 1-96.704 97.536zM129.408 704h269.504a32.64 32.64 0 0 0 31.232-23.552l13.824-45.568H96.768v35.584A33.152 33.152 0 0 0 129.408 704zM928 33.536a33.28 33.28 0 0 0-32.704-33.536H129.408a33.152 33.152 0 0 0-32.64 33.536V570.88h798.528a33.152 33.152 0 0 0 32.704-33.536v-503.808z"  horiz-adv-x="1024" />

    
    <glyph glyph-name="folder-open" unicode="&#61050;" d="M969.344 472.64a86.976 86.976 0 0 1-45.12 28.736v39.488c0 53.76-41.216 97.536-91.84 97.536H478.976l-17.792 63.552c-11.776 41.6-47.104 69.568-88 69.568H123.84C73.152 771.52 32 727.744 32 673.984v-642.432c0-2.624 0.896-4.992 1.536-7.488 1.408-20.224 8.512-39.872 21.504-56 16.32-20.48 41.024-32.512 67.2-32.768l713.024-1.28c41.6 0 77.568 31.744 85.568 75.52l69.504 381.248a99.52 99.52 0 0 1-20.992 81.856zM123.84 707.52h249.344c11.904 0 22.464-9.216 26.368-22.912l24.384-86.848c3.84-13.824 16.448-23.424 30.784-23.36h377.664c15.36 0 27.84-15.04 27.84-33.536v-36.544H199.104c-42.24 0-78.016-30.912-87.04-75.072L96 350.528V673.984c0 18.496 12.48 33.536 27.84 33.536z m734.016-686.528c-2.496-13.312-11.968-22.976-22.592-22.976l-0.128-32 0.064 32-712.832 1.216a23.104 23.104 0 0 0-17.664 9.216 36.608 36.608 0 0 0-6.976 30.528l77.056 377.408c2.816 13.824 13.056 23.872 24.32 23.872l693.12-0.064h11.008a22.272 22.272 0 0 0 17.024-8.64 35.968 35.968 0 0 0 7.104-29.312l-69.504-381.248z"  horiz-adv-x="1024" />

    
    <glyph glyph-name="focus-on" unicode="&#61051;" d="M418.752-0.128v0.896h-302.72c-28.608 0-52.032 22.272-52.032 49.536v459.52h832v-94.784h0.064a32 32 0 0 1 63.872 0H960V661.568c0 58.88-48 107.072-106.688 107.072H106.688C48 768.64 0 720.448 0 661.568v-617.92c0-58.88 48-107.072 106.688-107.072h312.064v0.832c15.808 1.92 28.288 14.912 28.288 31.232s-12.48 29.312-28.288 31.232zM64 647.616c0 31.744 23.424 57.792 52.032 57.792h728c28.544 0 51.968-26.048 51.968-57.792v-71.68H64v71.68zM225.408 334.784c18.304 0 35.328-8.96 46.848-24.448a3.392 3.392 0 0 1 3.456-1.408 3.648 3.648 0 0 1 2.752 2.688l17.088 37.76a4.224 4.224 0 0 1-0.576 5.184c-19.2 18.56-43.904 28.8-69.568 28.8-57.664 0-104.576-51.008-104.576-113.792 0-62.72 46.912-113.792 104.576-113.792 25.664 0 50.368 10.24 69.568 28.864a4.224 4.224 0 0 1 0.576 5.184l-17.024 37.696a3.84 3.84 0 0 1-2.752 2.624 3.392 3.392 0 0 1-3.52-1.408 58.112 58.112 0 0 0-46.848-24.512c-33.088 0-60.032 29.312-60.032 65.28s26.944 65.28 60.032 65.28zM406.272 383.296c-57.664 0-104.576-51.008-104.576-113.792 0-62.72 46.912-113.792 104.576-113.792s104.576 51.008 104.576 113.792c0.064 62.784-46.912 113.792-104.576 113.792z m-1.408-179.072c-33.088 0-59.968 29.312-59.968 65.28s26.944 65.28 60.032 65.28c33.088 0 59.968-29.248 59.968-65.28 0-35.968-26.944-65.28-60.032-65.28zM688.448 167.36c0-2.176 1.6-3.904 3.584-3.904h33.088c1.984 0 3.584 1.792 3.584 3.904V371.712c-0.064 2.176-1.664 3.904-3.648 3.904h-33.088a3.2 3.2 0 0 1-2.496-1.152l-57.152-62.144-57.088 62.144a3.392 3.392 0 0 1-2.56 1.152h-33.088c-1.984 0-3.584-1.792-3.584-3.904v-204.416c0-2.176 1.6-3.904 3.584-3.904h33.088c1.984 0 3.584 1.792 3.584 3.904V311.424l53.568-58.24a4.416 4.416 0 0 1 1.728-1.088 3.392 3.392 0 0 1 3.328 1.088l53.568 58.24v-144.064zM992.256 96h-128v128a32 32 0 0 1-64 0v-128h-128a32 32 0 0 1 0-64h128v-128a32 32 0 0 1 64 0v128h128a32 32 0 0 1 0 64z"  horiz-adv-x="1024" />

    
    <glyph glyph-name="gift" unicode="&#61052;" d="M868.352 608h-16.384a150.4 150.4 0 0 1 48.896 113.344c0 66.176-47.232 110.656-117.568 110.656-46.976 0-95.808-20.352-133.952-55.872-41.536-38.656-99.52-107.968-132.48-148.48-33.024 40.512-90.944 109.824-132.48 148.48C346.304 811.648 297.472 832 250.432 832c-70.272 0-117.568-44.48-117.568-110.656 0-49.6 20.288-86.336 49.024-113.344h-17.536c-52.928 0-96-43.072-96-96v-64c0-41.664 26.816-76.864 64-90.112V32c0-52.928 43.072-96 96-96h576c52.928 0 96 43.072 96 96V357.888c37.184 13.248 64 48.448 64 90.112V512c0 52.928-43.072 96-96 96z m-175.36 121.344c25.984 24.192 59.712 38.656 90.304 38.656 20.032 0 53.568-6.08 53.568-46.656 0-96.128-126.592-111.872-141.248-113.344H583.552c32.576 39.296 77.376 91.456 109.44 121.344z m-496.128-8c0 40.576 33.6 46.656 53.568 46.656 30.592 0 64.32-14.464 90.368-38.656 32.128-29.888 76.864-82.048 109.44-121.344H338.176c-6.912 0.64-141.312 14.784-141.312 113.344zM132.416 512a32 32 0 0 0 32 32h319.936v-128H164.416a32 32 0 0 0-32 32V512z m64-480v320h287.936V0H228.416a32 32 0 0 0-32 32z m640 0c0-17.6-14.4-32-32-32H548.352V352h288.064v-320z m64 416a32 32 0 0 0-32-32H548.352v128H868.416a32 32 0 0 0 32-32v-64z"  horiz-adv-x="1024" />

    
    <glyph glyph-name="games" unicode="&#61053;" d="M736.384 438.592a38.208 38.208 0 0 1 38.336 38.464 38.4 38.4 0 1 1-38.336-38.464zM669.888 410.496m-38.464 0a38.464 38.464 0 1 1 76.928 0 38.464 38.464 0 1 1-76.928 0ZM982.4 369.92c-24.64 243.776-137.92 329.984-233.92 329.984-34.496 0-59.072-14.784-83.712-29.568-32-19.712-71.424-41.856-150.208-41.856-81.28 0-118.208 22.144-150.208 41.856-24.64 14.784-49.28 29.568-83.712 29.568-100.928 0-211.776-86.208-238.848-329.984-19.712-174.848-9.856-278.272 32-325.056 17.216-19.712 39.424-29.568 64-29.568 64 0 100.992 36.928 142.848 81.28l46.784 46.784c44.352 39.424 88.64 44.352 130.496 44.352h103.424c41.856 0 86.208-4.928 130.496-44.352 17.216-14.784 32-29.568 46.784-46.784 41.856-44.352 78.784-81.28 142.848-81.28 27.072 0 46.784 9.856 64 29.568 46.784 46.784 56.64 150.208 36.928 325.056z m-80.32-260.608a43.008 43.008 0 0 0-30.464-12.864c-44.544 0-72.96 34.752-110.464 69.056-14.08 12.864-28.16 27.84-46.912 42.88-51.584 42.88-105.536 49.28-152.384 49.28H482.112c-46.912 0-112.512 2.112-173.504-49.28-18.752-14.976-34.624-25.216-48.64-40.256-35.2-34.304-66.24-71.744-108.416-71.744-14.08 0-23.424 4.288-30.464 12.864-30.464 30.016-32.832 124.8-16.384 262.016 23.424 186.496 111.104 255.232 183.808 255.232 23.424 0 38.912-10.88 57.664-21.568 35.2-19.264 77.376-42.88 164.096-42.88 89.088 0 131.328 23.552 164.096 42.88 21.12 10.688 40.96 21.568 62.08 21.568 72.704 0 158.336-68.736 179.456-255.232 21.056-135.04 16.64-229.824-13.824-261.952zM449.856 445.12h-64v64c0 17.6-14.4 32-32 32s-32-14.4-32-32v-64h-64c-17.6 0-32-14.4-32-32s14.4-32 32-32h64v-64c0-17.6 14.4-32 32-32s32 14.4 32 32v64h64c17.6 0 32 14.4 32 32s-14.4 32-32 32zM736 379.968a38.912 38.912 0 0 1-18.816-5.056 38.528 38.528 0 0 1 0-66.56 38.592 38.592 0 0 1 57.664 33.28 38.592 38.592 0 0 1-38.848 38.336zM782.208 443.84a38.336 38.336 0 1 1 37.184-67.136l1.216 0.704a38.4 38.4 0 0 1-38.4 66.432z"  horiz-adv-x="1024" />

    
    <glyph glyph-name="gird" unicode="&#61054;" d="M322.048 290.688H126.528c-52.928 0-96-43.072-96-96v-195.584c0-52.928 43.072-96 96-96h195.52c52.928 0 96 43.072 96 96v195.584c0 52.928-43.072 96-96 96zM322.048 799.104H126.528c-52.928 0-96-43.072-96-96v-195.52c0-52.928 43.072-96 96-96h195.52c52.928 0 96 43.072 96 95.936V703.104c0 52.928-43.072 96-96 96zM938.88 673.216L800.576 811.52c-36.224 36.224-99.52 36.224-135.744 0l-138.24-138.24a95.36 95.36 0 0 1-28.096-67.904c-0.064-25.472 10.048-49.92 28.096-67.904l138.24-138.304c18.176-18.112 42.304-28.096 67.904-28.096 25.6 0 49.728 9.984 67.84 28.032l138.304 138.304c18.112 18.176 28.096 42.304 28.096 67.904a95.36 95.36 0 0 1-28.096 67.904zM830.528 290.688H634.944c-52.928 0-96-43.072-96-96v-195.584c0-52.928 43.072-96 96-96h195.584c52.928 0 96 43.072 96 96v195.584c0 52.928-43.072 96-96 96z"  horiz-adv-x="1024" />

    
    <glyph glyph-name="gird-o" unicode="&#61055;" d="M322.112 290.112H126.528c-52.928 0-96-43.072-96-96v-195.584c0-52.928 43.072-96 96-96h195.584c52.928 0 96 43.072 96 96v195.584c0 52.928-43.072 96-96 96z m32-291.584c0-17.6-14.4-32-32-32H126.528a32.064 32.064 0 0 0-32 32v195.584c0 17.6 14.4 32 32 32h195.584c17.6 0 32-14.4 32-32v-195.584zM938.88 672.64l-138.304 138.304c-36.224 36.224-99.52 36.224-135.744 0L526.592 672.64a96.064 96.064 0 0 1 0-135.744l138.24-138.304c18.176-18.112 42.304-28.096 67.904-28.096 25.6 0 49.728 9.984 67.84 28.032l138.304 138.304c18.112 18.176 28.096 42.24 28.096 67.904s-9.984 49.792-28.096 67.904z m-45.248-90.496l-138.304-138.304a32.896 32.896 0 0 0-45.248 0l-138.24 138.304a32 32 0 0 0 0 45.248l138.24 138.304a32 32 0 0 0 45.248 0.064l138.304-138.304 0.064-0.064a32 32 0 0 0-0.064-45.248zM830.528 290.112H634.944c-52.928 0-96-43.072-96-96v-195.584c0-52.928 43.072-96 96-96h195.584c52.928 0 96 43.072 96 96v195.584c0 52.928-43.072 96-96 96z m32-291.584c0-17.6-14.4-32-32-32H634.944a32.064 32.064 0 0 0-32 32v195.584c0 17.6 14.4 32 32 32h195.584c17.6 0 32-14.4 32-32v-195.584zM322.112 798.528H126.528c-52.928 0-96-43.072-96-96v-195.584c0-52.928 43.072-96 96-96h195.584c52.928 0 96 43.072 96 96V702.528c0 52.928-43.072 96-96 96z m32-291.584a32 32 0 0 0-32-32H126.528a32 32 0 0 0-32 32V702.528a32 32 0 0 0 32 32h195.584a32 32 0 0 0 32-32v-195.584z"  horiz-adv-x="1024" />

    
    <glyph glyph-name="health" unicode="&#61056;" d="M906.048 742.144c-62.208 61.632-138.816 88.32-221.44 75.328-57.664-9.472-116.864-38.528-172.608-84.544-55.36 46.016-114.624 75.072-172.928 84.544-82.432 13.184-159.744-13.696-221.376-75.328A283.328 283.328 0 0 1 33.408 510.08c8.064-84.8 51.712-169.024 126.272-243.52l314.88-316.544a52.608 52.608 0 0 1 37.376-15.616c15.04 0 29.696 6.464 34.752 13.248 2.432 2.048 2.944 2.368 168.256 168.832 63.744 64.192 126.656 127.552 149.248 150.144 74.56 75.136 118.208 159.296 126.208 243.136 8.96 86.464-20.928 168.96-84.352 232.384z m-87.104-430.336c-22.528-22.464-85.504-85.952-149.312-150.208l-157.568-158.528-307.136 308.736c-63.872 63.872-101.184 134.528-107.84 204.352a220.544 220.544 0 0 0 65.792 180.608c39.744 39.808 85.376 59.968 135.616 59.968 10.176 0 20.352-0.832 30.4-2.432 53.376-8.64 109.12-38.848 161.216-87.36l21.696-20.16 21.824 20.096c52.672 48.576 108.48 78.784 161.216 87.36 61.376 9.6 118.08-9.856 166.144-57.472 49.408-49.408 72.768-113.472 65.792-180.672-1.024-10.816-4.16-21.76-6.656-32.64-0.832 0.064-1.536 0.512-2.432 0.512h-168.128l-56.128 97.344a32 32 0 0 1-27.136 16c-12.736 1.408-21.76-5.504-27.712-14.976L516.608 388.096 472.32 467.584a32 32 0 0 1-27.968 16.384H267.008a32 32 0 0 1 0-64H425.6l61.44-110.272a31.936 31.936 0 0 1 27.136-16.384h0.832a32 32 0 0 1 27.072 14.912l122.432 195.008 38.784-67.264c5.696-9.92 16.256-16 27.712-16h166.656a417.152 417.152 0 0 0-78.72-108.16z"  horiz-adv-x="1024" />

    
    <glyph glyph-name="global" unicode="&#61057;" d="M512 832C264.96 832 64 630.976 64 384s200.96-448 448-448c246.976 0 448 200.96 448 448s-201.024 448-448 448z m382.4-416h-186.176a666.688 666.688 0 0 1-31.552 162.88c77.696 18.688 126.976 44.096 132.992 47.296A381.952 381.952 0 0 0 894.4 416z m-764.8-64h186.048c3.456-51.328 12.352-101.76 27.2-150.4-44.672-10.176-90.944-25.28-138.24-46.848A381.696 381.696 0 0 0 129.6 352z m235.392-211.264c19.584-47.168 44.8-91.968 74.88-133.696a382.784 382.784 0 0 0-190.336 97.408 642.88 642.88 0 0 0 115.456 36.288zM512 17.088a603.52 603.52 0 0 0-82.048 134.208 663.36 663.36 0 0 0 162.56-3.456A604.032 604.032 0 0 0 512 17.088z m144.576 118.784c54.08-12.864 93.44-28.8 111.68-37.12a382.528 382.528 0 0 0-184.32-91.776c29.056 40.32 53.376 83.52 72.64 128.896z m-249.984 77.312A602.368 602.368 0 0 0 379.584 352h264.768a604.352 604.352 0 0 0-28.032-141.76 721.92 721.92 0 0 1-209.728 2.944zM379.648 416a604.16 604.16 0 0 0 31.168 151.744c35.008-5.248 69.12-8.576 101.056-8.576 36.544 0 70.208 3.264 101.568 7.936 16.704-48.64 27.072-99.328 30.976-151.104H379.648zM512 750.912a601.856 601.856 0 0 0 76.608-122.176 630.272 630.272 0 0 0-153.152-0.064A604.8 604.8 0 0 0 512 750.912zM370.944 640.32a619.072 619.072 0 0 0-107.392 35.968A382.72 382.72 0 0 0 439.808 760.96a668.672 668.672 0 0 1-68.864-120.64zM584.128 760.96a382.336 382.336 0 0 0 178.112-86.336 603.2 603.2 0 0 0-108.864-35.008A668.16 668.16 0 0 1 584.128 760.96zM215.296 627.456c45.312-21.824 89.536-36.352 132.544-47.104A667.136 667.136 0 0 1 315.712 416H129.6a382.272 382.272 0 0 0 85.696 211.456z m598.08-480.704c-1.088 0.896-1.856 2.112-3.136 2.88-4.8 2.56-53.696 27.904-130.944 47.424 15.744 50.048 25.28 102.016 28.864 154.944h186.24a381.44 381.44 0 0 0-81.024-205.248z"  horiz-adv-x="1024" />

    
    <glyph glyph-name="heart" unicode="&#61058;" d="M906.112 749.632C843.968 811.136 767.36 838.016 684.608 824.96c-57.664-9.408-116.864-38.528-172.544-84.48-55.36 45.952-114.624 75.008-172.992 84.48-82.24 13.12-159.68-13.696-221.312-75.328a283.584 283.584 0 0 1-84.352-232.064c8.128-84.8 51.776-168.96 126.336-243.52 23.104-23.104 183.808-184.32 188.032-188.672l126.656-127.68c10.048-10.24 23.424-15.872 37.568-15.872 15.04 0 29.696 6.528 34.816 13.312 2.496 1.984 3.008 2.432 173.44 174.016 61.952 62.464 122.112 123.008 144.128 145.024 74.496 75.136 118.144 159.296 126.144 243.136 8.896 86.336-20.992 168.832-84.416 232.32z"  horiz-adv-x="1024" />

    
    <glyph glyph-name="heart-o" unicode="&#61059;" d="M511.936-58.176a52.48 52.48 0 0 0-37.504 15.68L347.712 85.44l-62.272 62.4-125.76 126.144C85.184 348.48 41.472 432.704 33.408 517.504a283.2 283.2 0 0 0 84.352 232.064c61.632 61.632 139.2 88.448 221.312 75.328C397.376 815.488 456.64 786.432 512 740.352c55.808 46.08 114.944 75.136 172.608 84.544 82.816 13.184 159.232-13.76 221.504-75.328 63.36-63.36 93.248-145.856 84.288-232.32-8-83.84-51.648-168-126.144-243.136l-136.192-136.96C549.696-42.496 549.184-42.88 546.496-45.056c-4.736-6.592-19.392-13.12-34.56-13.12zM298.56 764.16c-50.24 0-95.936-20.16-135.68-59.968a220.416 220.416 0 0 1-65.792-180.608c6.72-69.824 43.968-140.48 107.84-204.352l307.136-308.736c26.752 26.816 100.864 101.44 170.688 171.712l136.192 137.088C882.88 383.68 920.192 454.4 926.72 523.52c6.976 67.2-16.384 131.328-65.728 180.672-48.064 47.552-104.832 67.2-166.208 57.536-52.608-8.64-108.416-38.848-161.216-87.424l-21.76-20.096-21.696 20.16c-52.096 48.512-107.84 78.72-161.152 87.36a195.904 195.904 0 0 1-30.4 2.432z"  horiz-adv-x="1024" />

    
    <glyph glyph-name="hourglass" unicode="&#61060;" d="M928 0h-73.024c4.608 212.288-123.52 337.984-196.288 391.36C840.64 506.24 859.072 700.736 859.712 768h55.744a32 32 0 0 1 0 64H96a32 32 0 0 1 0-64h68.288c0.64-67.264 19.072-261.76 200.96-376.64C292.48 337.984 164.352 212.288 168.96 0h-60.352a32 32 0 0 1 0-64H928a32 32 0 0 1 0 64zM442.304 365.12a32.064 32.064 0 0 1-0.896 57.28C242.752 517.184 227.648 708.416 228.032 768h567.808c-0.128-59.2-16.384-251.648-213.312-345.6a31.872 31.872 0 0 1-18.24-28.352 32.192 32.192 0 0 1 17.28-28.992c8.96-4.736 216.128-115.968 209.92-365.056H232.512c-6.208 249.152 200.896 360.384 209.792 365.12z"  horiz-adv-x="1024" />

    
    <glyph glyph-name="history" unicode="&#61061;" d="M670.4 608a32 32 0 0 1-32 32h-448a32 32 0 0 1 0-64h448a32 32 0 0 1 32 32zM384 0.96H128.256a32.128 32.128 0 0 0-32.256 31.936V736.064v0.064A32 32 0 0 0 128.256 768h576.192a32.128 32.128 0 0 0 32.256-31.936v-254.592a32 32 0 0 1 64 0V736.064c0 52.928-43.2 95.936-96.256 95.936H128.256C75.2 832 32 788.992 32 736.064v-703.168a96.256 96.256 0 0 1 96.256-95.936H384a32 32 0 0 1 0 64zM190.4 447.616a32 32 0 0 1 0-64h300.032a32 32 0 0 1 0 64H190.4zM735.168 383.552c-141.632 0-256.832-114.816-256.832-255.808S593.536-128 735.168-128s256.832 114.688 256.832 255.744c0 141.056-115.2 255.808-256.832 255.808z m0-447.488a192.512 192.512 0 0 0-192.832 191.744c0 105.728 86.528 191.744 192.832 191.744s192.832-86.016 192.832-191.744a192.512 192.512 0 0 0-192.832-191.744zM384 255.296H190.4a32 32 0 0 1 0-64H384a32 32 0 0 1 0 64zM814.272 122.112H746.88V192.64a32 32 0 0 1-64 0v-102.528a32 32 0 0 1 32-32h99.392a32 32 0 0 1 0 64z"  horiz-adv-x="1024" />

    
    <glyph glyph-name="home" unicode="&#61062;" d="M982.592 374.784l-451.84 448a32.064 32.064 0 0 1-45.184-0.128L41.344 377.152a32 32 0 0 1 45.312-45.184L128 373.44v-405.376c0-52.928 45.952-96 102.4-96h143.872l0.704 0.128 0.704-0.128a32 32 0 0 1 32 32V256h192v-351.936a32 32 0 0 1 32-32c0.64 0 1.152 0.32 1.792 0.384 0.64-0.064 1.152-0.384 1.792-0.384H793.6c56.448 0 102.4 43.072 102.4 96V370.432l41.408-41.088a32.128 32.128 0 0 1 45.12 0.064 32.064 32.064 0 0 1 0.064 45.376zM832-31.936c0-17.6-17.216-32-38.4-32h-129.92V288a32 32 0 0 1-32 32h-256a32 32 0 0 1-32-32v-351.936H230.4c-21.184 0-38.4 14.4-38.4 32V437.632l316.352 317.248L832 433.856v-465.792z"  horiz-adv-x="1024" />

    
    <glyph glyph-name="image" unicode="&#61063;" d="M860.48 767.936H163.584C91.008 767.936 32 715.328 32 650.624v-597.312c0-64.768 59.072-117.376 131.584-117.376h696.832c72.576 0 131.584 52.608 131.648 117.376V650.624c0 64.704-59.008 117.312-131.584 117.312z m-696.896-64h696.896c37.248 0 67.584-23.936 67.584-53.312v-394.304l-119.168 86.848a32.256 32.256 0 0 1-38.976-1.024L595.2 200.768 300.864 520.32a32 32 0 0 1-48.512-1.728L96 322.752V650.624c0 29.376 30.336 53.312 67.584 53.312z m696.896-704H163.584c-37.248 0-67.584 23.936-67.584 53.376v167.936c0.704 0.704 1.664 1.088 2.368 1.92l180.736 226.368 289.344-314.176a32 32 0 0 1 43.712-3.2l178.944 144.832 136.96-99.904v-123.776c0-29.44-30.336-53.376-67.584-53.376zM715.904 420.992c58.816 0 106.688 47.872 106.688 106.688s-47.872 106.688-106.688 106.688-106.688-47.872-106.688-106.688 47.872-106.688 106.688-106.688z m0 149.312a42.688 42.688 0 1 0 0.128-85.376 42.688 42.688 0 0 0-0.128 85.376z"  horiz-adv-x="1024" />

    
    <glyph glyph-name="image-size" unicode="&#61064;" d="M379.2 385.152c-10.112 2.112-19.84-4.928-25.856-13.184l-138.624-190.784a31.872 31.872 0 0 1 25.856-50.816h554.624a31.936 31.936 0 0 1 27.968 47.488l-166.4 299.968a32.064 32.064 0 0 1-53.76 3.456L464.192 293.12l-59.392 79.232a32 32 0 0 1-25.6 12.8z m85.376-177.664a32.064 32.064 0 0 1 25.6 12.992L624.96 403.2l115.84-208.832H303.36l76.224 104.96 59.264-79.04c6.08-8.064 15.872-10.432 25.728-12.8zM96 536.896a32 32 0 0 1 32 32V707.584A60.544 60.544 0 0 0 188.416 768h138.688a32 32 0 0 1 0 64H188.416A124.544 124.544 0 0 1 64 707.584v-138.688a32 32 0 0 1 32-32zM312.704 580.096a69.312 69.312 0 1 1 138.624 4.224 69.312 69.312 0 0 1-138.624-4.224zM327.104 0H188.416A60.48 60.48 0 0 0 128 60.416v138.688a32 32 0 0 1-64 0v-138.688A124.544 124.544 0 0 1 188.416-64h138.688a32 32 0 0 1 0 64zM835.584 832H696.96a32 32 0 0 1 0-64h138.624a60.544 60.544 0 0 0 60.416-60.416v-138.688a32 32 0 0 1 64 0V707.584A124.544 124.544 0 0 1 835.584 832zM928 231.104a32 32 0 0 1-32-32v-138.688a60.48 60.48 0 0 0-60.416-60.416H696.96a32 32 0 0 1 0-64h138.624A124.544 124.544 0 0 1 960 60.416v138.688a32 32 0 0 1-32 32z"  horiz-adv-x="1024" />

    
    <glyph glyph-name="import" unicode="&#61065;" d="M738.368 76.608a32 32 0 0 1-32-32v-51.008a56.96 56.96 0 0 0-56-57.6h-528a56.96 56.96 0 0 0-56 57.6V710.4c0 31.744 25.152 57.6 56 57.6h320v-236.8a32 32 0 0 1 32-32h232v-54.592a32 32 0 0 1 64 0V531.2a31.872 31.872 0 0 1-2.496 12.224c-1.088 2.688-2.944 4.928-4.736 7.168-0.768 0.96-1.152 2.176-1.984 3.008l-0.128 0.128-0.064 0.064L497.216 822.4l-0.064 0.064A31.04 31.04 0 0 1 474.368 832h-352C56.192 832 2.368 777.472 2.368 710.4v-716.8c0-67.072 53.824-121.6 120-121.6h528c66.176 0 120 54.592 120 121.6v51.008a32 32 0 0 1-32 32zM506.368 721.728L662.08 563.2H506.368V721.728zM989.632 256H532.928l73.408 73.408a32 32 0 0 1-45.248 45.248l-128-128a32 32 0 0 1 0-45.248l128-128a32.128 32.128 0 0 1 45.248-0.064 32 32 0 0 1 0 45.248L532.928 192h456.704a32 32 0 0 1 0 64z"  horiz-adv-x="1024" />

    
    <glyph glyph-name="info-cirlce" unicode="&#61066;" d="M512 864C247.296 864 32 648.704 32 384s215.296-480 480-480 480 215.296 480 480S776.704 864 512 864z m32-720.512a32 32 0 0 0-64 0v352a32 32 0 0 0 64 0v-352z m-32 448.896a41.6 41.6 0 1 0 0 83.2 41.6 41.6 0 0 0 0-83.2z"  horiz-adv-x="1024" />

    
    <glyph glyph-name="inbox" unicode="&#61067;" d="M989.312 352.704l-0.128 0.512-155.456 343.616A121.92 121.92 0 0 1 722.56 768H301.312c-47.936 0-91.52-27.968-111.04-71.168L34.816 353.152l-0.064-0.448a31.36 31.36 0 0 1-2.752-12.736v-219.968C32 53.824 86.528 0 153.6 0h716.8c67.008 0 121.6 53.824 121.6 120V339.968a32.384 32.384 0 0 1-2.688 12.736zM248.576 670.464A57.856 57.856 0 0 0 301.44 704h421.184a57.6 57.6 0 0 0 52.736-33.6l135.04-298.432H691.2a32.064 32.064 0 0 1-26.496-14.016l-80-117.952H439.36L359.296 357.952a32 32 0 0 1-26.496 14.016H113.6l134.976 298.496zM870.4 64H153.6a56.96 56.96 0 0 0-57.6 56V307.968h219.84l80.064-117.952a32 32 0 0 1 26.496-14.016h179.2a32 32 0 0 1 26.496 14.016l80 117.952H928v-187.968a56.96 56.96 0 0 0-57.6-56z"  horiz-adv-x="1024" />

    
    <glyph glyph-name="info-cirlce-o" unicode="&#61068;" d="M512 477.504a32 32 0 0 1-32-32v-256a32 32 0 0 1 64 0v256a32 32 0 0 1-32 32zM512 864C247.296 864 32 648.704 32 384s215.296-480 480-480 480 215.296 480 480S776.704 864 512 864z m0-896c-229.376 0-416 186.624-416 416S282.624 800 512 800s416-186.624 416-416-186.624-416-416-416zM512 611.392a38.4 38.4 0 0 1-38.4-38.4v-0.064a38.4 38.4 0 1 1 38.4 38.464z"  horiz-adv-x="1024" />

    
    <glyph glyph-name="integral" unicode="&#61069;" d="M448 374.4h-0.768v-348.672c0-79.808 128.832-121.536 256.064-121.536 127.232 0 256.128 41.792 256.128 121.536V370.624c0 158.272-502.976 159.36-511.424 3.776z m255.296 53.824c124.8 0 192.128-40.896 192.128-57.536 0-16.704-67.328-57.6-192.128-57.6-124.736 0-192.064 40.832-192.064 57.6 0 16.704 67.328 57.536 192.064 57.536z m0-459.968c-124.736 0-192.064 40.832-192.064 57.536v83.52c49.344-25.728 120.576-39.36 192.064-39.36 71.552 0 142.72 13.632 192.128 39.424v-83.584c0-16.64-67.328-57.536-192.128-57.536z m0 165.696c-124.736 0-192.064 40.832-192.064 57.6V288.384c49.344-25.728 120.576-39.36 192.064-39.36 71.552 0 142.72 13.632 192.128 39.424v-96.896c0-16.704-67.328-57.6-192.128-57.6zM416.704 543.808c108.032 0 220.224 22.528 288.128 65.344v-41.92a32 32 0 0 1 64 0V703.808c0 103.936-181.44 160-352.128 160s-352.128-56.064-352.128-160v-541.696c0-94.912 147.712-147.712 294.08-158.016l2.304-0.064a32.064 32.064 0 0 1 2.24 63.936c-151.104 10.624-234.624 62.4-234.624 94.144V328.832c56.64-35.968 143.232-57.408 230.08-63.488l2.304-0.128a32.064 32.064 0 0 1 2.24 63.936c-151.104 10.624-234.624 62.4-234.624 94.144V609.152c67.904-42.816 180.096-65.344 288.128-65.344z m0 256c175.936 0 288.128-56.896 288.128-96s-112.256-96-288.128-96-288.128 56.896-288.128 96 112.192 96 288.128 96z"  horiz-adv-x="1024" />

    
    <glyph glyph-name="key" unicode="&#61070;" d="M866.368 436.992a285.312 285.312 0 0 1-382.528 20.48L345.856 595.52l66.176 66.176a32 32 0 0 1-45.312 45.184L300.544 640.768l-41.728 41.728 66.112 66.112a32 32 0 0 1-45.248 45.248L213.568 727.744 128.064 813.248A32 32 0 0 1 82.816 768l355.904-355.968c-90.112-113.152-84.224-277.568 20.288-382.336a286.592 286.592 0 0 1 203.712-84.288 286.4 286.4 0 0 1 203.648 84.288 288.384 288.384 0 0 1 0 407.296z m-45.312-361.984c-84.608-84.672-232.192-84.608-316.8 0a224.256 224.256 0 0 0-0.064 316.672l0.128 0.128 0.064 0.128a222.656 222.656 0 0 0 158.336 65.472 222.4 222.4 0 0 0 158.336-65.6 224.32 224.32 0 0 0 0-316.8z"  horiz-adv-x="1024" />

    
    <glyph glyph-name="kids-and-teens" unicode="&#61071;" d="M654.336 331.008a270.336 270.336 0 0 1 129.6 230.08A271.232 271.232 0 0 1 512.96 832a271.168 271.168 0 0 1-270.912-270.976 270.336 270.336 0 0 1 129.536-230.016C192.512 271.552 62.848 102.784 62.848-96a32 32 0 0 1 32-32h836.288a32 32 0 0 1 32 32c0 198.784-129.728 367.616-308.8 427.008zM512.96 768c108.032 0 195.904-83.456 205.12-189.12H307.84C317.056 684.544 404.928 768 512.96 768zM310.336 519.104h405.184a207.296 207.296 0 0 0-202.624-164.928 207.36 207.36 0 0 0-202.56 164.928zM128.128-64a386.624 386.624 0 0 0 384.832 354.112A386.56 386.56 0 0 0 897.792-64H128.128zM462.72 612.864h93.312a56.768 56.768 0 0 1 0 113.408H462.72a56.768 56.768 0 0 1 0-113.408z m0 75.904h93.312a19.2 19.2 0 1 0 0-38.4H462.72a19.2 19.2 0 0 0-19.2 19.2 19.2 19.2 0 0 0 19.2 19.2zM695.936 178.752H540.288a26.88 26.88 0 0 1-26.88-26.88v-65.024a104.832 104.832 0 0 1 104.704-104.704c57.728 0 104.704 46.912 104.704 104.704v65.024a26.88 26.88 0 0 1-26.88 26.88z m-26.816-91.968a51.008 51.008 0 0 0-101.888 0v38.144h101.888v-38.144z"  horiz-adv-x="1024" />

    
    <glyph glyph-name="laptop" unicode="&#61072;" d="M929.344-1.216h-832a32 32 0 0 1 0-64h832a32 32 0 0 1 0 64zM846.144 767.168h-665.6c-63.488 0-115.2-55.424-115.2-123.456v-457.152c0-68.032 51.648-123.392 115.2-123.392h665.6c63.488 0 115.2 55.36 115.2 123.392V643.712c0 68.096-51.712 123.456-115.2 123.456z m51.2-580.608c0-32.704-22.976-59.392-51.2-59.392h-665.6c-28.224 0-51.2 26.624-51.2 59.392V643.712c0 32.768 22.976 59.456 51.2 59.456h665.6c28.288 0 51.2-26.688 51.2-59.456v-457.152z"  horiz-adv-x="1024" />

    
    <glyph glyph-name="layers" unicode="&#61073;" d="M60.928 555.648l406.528-203.264a99.584 99.584 0 0 1 89.024-0.064l406.656 203.328a51.968 51.968 0 0 1 28.864 46.72 51.968 51.968 0 0 1-28.864 46.72L556.48 852.416a101.12 101.12 0 0 1-89.024 0L60.928 649.088a51.904 51.904 0 0 1-28.928-46.72c0-19.904 11.072-37.824 28.928-46.72z m435.136 239.552a36.608 36.608 0 0 0 31.872 0l385.536-192.832L527.872 409.6a36.096 36.096 0 0 0-31.808 0L110.528 602.368l385.536 192.832zM945.728 407.04l-419.328-209.664a32.256 32.256 0 0 0-28.672 0L78.336 407.04a32 32 0 1 1-28.672-57.28l419.456-209.728a96.704 96.704 0 0 1 85.824 0.064l419.392 209.664a32 32 0 0 1-28.608 57.28zM945.728 182.976l-419.328-209.664a32.448 32.448 0 0 0-28.672 0l-419.392 209.664a32 32 0 0 1-28.608-57.28l419.392-209.664a96.704 96.704 0 0 1 85.824 0l419.392 209.664a32 32 0 0 1-28.608 57.28z"  horiz-adv-x="1024" />

    
    <glyph glyph-name="layout" unicode="&#61074;" d="M835.52 832H188.416A124.544 124.544 0 0 1 64 707.584v-647.168A124.544 124.544 0 0 1 188.416-64h647.168A124.544 124.544 0 0 1 960 60.48V707.584A124.544 124.544 0 0 1 835.52 832zM188.416 768h647.168a60.544 60.544 0 0 0 60.416-60.416v-136.896H128V707.584A60.544 60.544 0 0 0 188.416 768zM128 60.48V506.688h257.344V0H188.416A60.544 60.544 0 0 0 128 60.48zM835.52 0H449.344V506.688H896v-446.272a60.608 60.608 0 0 0-60.48-60.416z"  horiz-adv-x="1024" />

    
    </font>
</defs>
</svg>
