<?xml version="1.0" encoding="UTF-8"?>
<svg width="120px" height="100px" viewBox="0 0 120 100" version="1.1" xmlns="http://www.w3.org/2000/svg" xmlns:xlink="http://www.w3.org/1999/xlink">
    <!-- Generator: Sketch 52.2 (67145) - http://www.bohemiancoding.com/sketch -->
    <title>kongbaiye</title>
    <desc>Created with Sketch.</desc>
    <defs>
        <polygon id="path-1" points="0.00711068755 0.0275037313 115.045473 0.0275037313 115.045473 18.7429701 0.00711068755 18.7429701"></polygon>
    </defs>
    <g id="Page-1" stroke="none" stroke-width="1" fill="none" fill-rule="evenodd">
        <g id="kongbaiye">
            <g id="分组" transform="translate(0.000000, 44.477612)">
                <mask id="mask-2" fill="white">
                    <use xlink:href="#path-1"></use>
                </mask>
                <g id="Clip-2"></g>
                <path d="M113.103426,18.7429701 C114.195983,18.7429701 115.045473,17.9004627 115.045473,16.8173563 C115.045473,15.7337799 114.195983,14.8912724 113.103426,14.8912724 C112.739596,14.8912724 112.435851,14.9514515 112.132698,15.1323414 C111.525801,15.4331194 111.161853,16.0952071 111.161853,16.8173563 C111.161853,17.9004627 112.011343,18.7429701 113.103426,18.7429701 Z" id="Fill-1" fill="#D9E6FD" mask="url(#mask-2)"></path>
                <path d="M1.45638732,1.47144963 L0,1.47144963 C0,2.25377799 0.66757505,2.91586567 1.45638732,2.91586567 C2.24519959,2.91586567 2.9123006,2.25377799 2.9123006,1.47144963 C2.9123006,0.689003731 2.24519959,0.0275037313 1.45638732,0.0275037313 C1.21332032,0.0275037313 0.970727362,0.0875652985 0.728252917,0.207923507 C0.242592957,0.448522388 0,0.930072761 0,1.47144963" id="Fill-3" fill="#D9E6FD" mask="url(#mask-2)"></path>
            </g>
            <path d="M103.050414,44.2537895 C103.050414,42.5874995 101.740937,41.2780392 100.074627,41.2780392 C98.4083163,41.2780392 97.098956,42.5874995 97.098956,44.2537895 C97.098956,45.9200795 98.4083163,47.2289586 100.074627,47.2289586 C101.681426,47.1695645 102.990438,45.8605691 103.050414,44.2537895 Z M95.3731343,44.2537895 C95.3731343,41.6948441 97.5157661,39.5522388 100.074627,39.5522388 C102.633604,39.5522388 104.776119,41.6948441 104.776119,44.2537895 C104.776119,46.8126186 102.633604,48.9552239 100.074627,48.9552239 C97.5157661,48.9552239 95.3731343,46.7532244 95.3731343,44.2537895 Z" id="Fill-4" fill="#D9E6FD"></path>
            <path d="M103.662831,3.04686057 C103.662831,1.34075194 102.331399,0 100.637149,0 C98.9428999,0 97.6119403,1.34075194 97.6119403,3.04686057 C97.6119403,4.7528502 98.9428999,6.09312611 100.637149,6.09312611 C102.27089,6.09312611 103.602322,4.7528502 103.662831,3.04686057 Z M99.3061897,3.04686057 C99.3061897,2.31555215 99.9110425,1.76704108 100.57664,1.76704108 C101.242357,1.76704108 101.847564,2.3764846 101.847564,3.04686057 C101.847564,3.7166415 101.242357,4.32620403 100.57664,4.32620403 C99.9110425,4.32620403 99.3061897,3.77757395 99.3061897,3.04686057 Z M115.643477,25.1652213 L114.191145,25.1652213 C113.646801,25.1652213 113.223002,25.5915105 113.223002,26.1400215 C113.223002,26.6886516 113.646801,27.1149408 114.191145,27.1149408 L115.643477,27.1149408 L115.643477,28.5774386 C115.643477,29.1254736 116.067276,29.5522388 116.611501,29.5522388 C117.156199,29.5522388 117.579525,29.1254736 117.579525,28.5774386 L117.579525,27.1149408 L119.031976,27.1149408 C119.576674,27.1149408 120,26.6886516 120,26.1400215 C120,25.5915105 119.576674,25.1652213 119.031976,25.1652213 L117.579525,25.1652213 L117.579525,23.7027235 C117.579525,23.1542124 117.156199,22.7279233 116.611501,22.7279233 C116.067276,22.7279233 115.643477,23.1542124 115.643477,23.7027235 L115.643477,25.1652213 Z" id="Fill-5" fill="#D9E6FD"></path>
            <path d="M10.4002949,76.3705164 L7.9579141,76.3705164 C7.53075683,76.3705164 7.1641791,76.736758 7.1641791,77.1644176 C7.1641791,77.6525411 7.46981955,77.9577226 7.9579141,77.9577226 L10.4002949,77.9577226 L10.4002949,80.4002479 C10.4002949,80.8277882 10.7663956,81.1940299 11.1940299,81.1940299 C11.6827207,81.1940299 11.9877648,80.8888484 11.9877648,80.4002479 L11.9877648,77.9577226 L14.4301456,77.9577226 C14.8573029,77.9577226 15.2238806,77.5916002 15.2238806,77.1644176 C15.2238806,76.6756979 14.9183594,76.3705164 14.4301456,76.3705164 L11.9877648,76.3705164 L11.9877648,73.9281103 C11.9877648,73.5004508 11.6211871,73.1343284 11.1940299,73.1343284 C10.705339,73.1343284 10.4002949,73.4393906 10.4002949,73.9281103 L10.4002949,76.3705164 Z" id="Fill-6" fill="#D9E6FD"></path>
            <path d="M24,90.1798392 C24,95.2953917 39.0955801,99.358209 57.5819827,99.358209 C76.068599,99.358209 91.1641791,95.2953917 91.1641791,90.1798392 C91.1641791,85.0631112 76.068599,81 57.5819827,81 C39.0955801,81 24,85.213292 24,90.1798392 Z" id="Fill-7" fill="#E8EFFC"></path>
            <path d="M24.9194004,27.7014925 L17.9746057,27.7014925 C17.42668,27.7014925 17,27.276078 17,26.7285735 C17,26.1816628 17.42668,25.7557731 17.9746057,25.7557731 L24.9194004,25.7557731 C25.467921,25.7557731 25.894601,26.1816628 25.894601,26.7285735 C25.894601,27.276078 25.467921,27.7014925 24.9194004,27.7014925 Z M33.935842,16.3307384 C33.3873214,16.3307384 32.9611173,15.9048487 32.9611173,15.3578193 L32.9611173,8.97280031 C32.9611173,8.42588963 33.3873214,8 33.935842,8 C34.4842437,8 34.9104478,8.42588963 34.9104478,8.97280031 L34.9104478,15.3578193 C34.8495275,15.9655374 34.4233234,16.3307384 33.935842,16.3307384 Z M28.6966967,20.891059 C28.4531345,20.891059 28.2092153,20.7695629 28.0264544,20.5871406 L22.5438658,15.0535445 C22.1781061,14.6888187 22.1781061,14.0806255 22.5438658,13.7160183 C22.9092686,13.3509362 23.5185906,13.3509362 23.8838744,13.7160183 L29.4278592,19.2492581 C29.793143,19.6143402 29.793143,20.2220584 29.4278592,20.5871406 C29.184297,20.7695629 28.9402588,20.891059 28.6966967,20.891059 Z" id="Fill-8" fill="#D9E6FD"></path>
            <path d="M81.4925373,82.0531501 C81.4925373,84.7758925 79.2452287,87.0149254 76.5124227,87.0149254 L37.2189206,87.0149254 C34.4861146,87.0149254 32.238806,84.7758925 32.238806,82.0531501 L32.238806,36.0064333 C32.238806,33.2836908 34.4861146,31.0447761 37.2189206,31.0447761 L76.5124227,31.0447761 C79.2452287,31.0447761 81.4925373,33.2836908 81.4925373,36.0064333 L81.4925373,82.0531501 Z" id="Fill-9" fill="#F5F7FB"></path>
            <path d="M77.2097964,89.8907185 L36.1834618,89.8907185 C32.7592132,89.8907185 29.9693095,87.0882267 29.9693095,83.6485278 L29.9693095,35.1758814 C29.9693095,31.736307 32.7592132,28.9338151 36.1834618,28.9338151 L77.2097964,28.9338151 C80.6339211,28.9338151 83.4238248,31.736307 83.4238248,35.1758814 L83.4238248,83.6485278 C83.4238248,87.0240332 80.6339211,89.8907185 77.2097964,89.8907185 Z M36.1834618,30.9082613 C33.8376738,30.9082613 31.998792,32.8190116 31.998792,35.11231 L31.998792,83.5849564 C31.998792,85.9413286 33.9009596,87.7885075 36.1834618,87.7885075 L77.2097964,87.7885075 C79.5560797,87.7885075 81.3949615,85.8776328 81.3949615,83.5849564 L81.3949615,35.1758814 C81.3949615,32.8190116 79.4921746,30.9718327 77.2097964,30.9718327 C77.2097964,30.9082613 36.1834618,30.9082613 36.1834618,30.9082613 Z" id="Fill-10" fill="#CDDEFD"></path>
            <path d="M88.6567164,75.7791235 C88.6567164,78.5048126 86.4121538,80.7462687 83.682687,80.7462687 L44.3770145,80.7462687 C41.6470738,80.7462687 39.4029851,78.5048126 39.4029851,75.7791235 L39.4029851,29.7431463 C39.4029851,27.0174572 41.6470738,24.7761194 44.3770145,24.7761194 L83.6220296,24.7761194 C86.3514964,24.7761194 88.596059,27.0174572 88.596059,29.7431463 L88.596059,75.7791235 L88.6567164,75.7791235 Z" id="Fill-11" fill="#F5F7FB"></path>
            <path d="M84.712003,82.8572297 L43.6859075,82.8572297 C40.2616272,82.8572297 37.4716976,80.0547435 37.4716976,76.6150517 L37.4716976,28.1425043 C37.4716976,24.7029368 40.2616272,21.9003263 43.6859075,21.9003263 L84.712003,21.9003263 C88.1362833,21.9003263 90.9262129,24.7029368 90.9262129,28.1425043 L90.9262129,76.6150517 C90.9262129,79.9910478 88.1362833,82.8572297 84.712003,82.8572297 Z M43.6859075,23.8748928 C41.3394785,23.8748928 39.5007035,25.7861368 39.5007035,28.078933 L39.5007035,76.551356 C39.5007035,78.9083455 41.4028888,80.7553962 43.6859075,80.7553962 L84.712003,80.7553962 C87.058432,80.7553962 88.897207,78.8441521 88.897207,76.551356 L88.897207,28.1425043 C88.897207,25.7861368 86.9950217,23.9384641 84.712003,23.9384641 L43.6859075,23.8748928 Z" id="Fill-13" fill="#CDDEFD"></path>
            <path d="M79.6253037,35.6050516 L46.643353,35.6050516 C46.0970546,35.6050516 45.6716418,35.1821656 45.6716418,34.6983614 C45.6716418,34.2151475 46.0970546,33.7313433 46.643353,33.7313433 L79.6253037,33.7313433 C80.1716021,33.7313433 80.5970149,34.1547015 80.5970149,34.6983614 C80.5970149,35.2426116 80.1109814,35.6050516 79.6253037,35.6050516 Z M68.0819769,71.3432836 L46.7625778,71.3432836 C46.2156862,71.3432836 45.7902734,70.9199254 45.7902734,70.3762655 C45.7902734,69.8320152 46.2156862,69.408657 46.7625778,69.408657 L68.1425976,69.408657 C68.6894892,69.408657 69.1144275,69.8320152 69.1144275,70.3762655 C68.9929487,70.9199254 68.6287498,71.3432836 68.0819769,71.3432836 Z M68.0819769,62.3708288 L46.7625778,62.3708288 C46.2156862,62.3708288 45.7902734,61.9474706 45.7902734,61.4038106 C45.7902734,60.8595604 46.2156862,60.4362022 46.7625778,60.4362022 L68.1425976,60.4362022 C68.6894892,60.4362022 69.1144275,60.8595604 69.1144275,61.4038106 C68.9929487,61.9474706 68.6287498,62.3708288 68.0819769,62.3708288 Z M68.0819769,53.5164326 L46.7625778,53.5164326 C46.2156862,53.5164326 45.7902734,53.0930744 45.7902734,52.5494144 C45.7902734,52.0051642 46.2156862,51.581806 46.7625778,51.581806 L68.1425976,51.581806 C68.6894892,51.581806 69.1144275,52.0051642 69.1144275,52.5494144 C68.9929487,53.0930744 68.6287498,53.5164326 68.0819769,53.5164326 Z M68.0819769,44.5439777 L46.7625778,44.5439777 C46.2156862,44.5439777 45.7902734,44.1206196 45.7902734,43.5769596 C45.7902734,43.0327094 46.2156862,42.6093512 46.7625778,42.6093512 L68.1425976,42.6093512 C68.6894892,42.6093512 69.1144275,43.0327094 69.1144275,43.5769596 C68.9929487,44.1206196 68.6287498,44.5439777 68.0819769,44.5439777 Z" id="Fill-14" fill="#CDDEFD"></path>
        </g>
    </g>
</svg>